<svg width="250" height="250" viewBox="0 0 250 250" fill="none" xmlns="http://www.w3.org/2000/svg">
<circle cx="125" cy="125" r="122" fill="black" stroke="black" stroke-width="6"/>
<circle cx="118.5" cy="121.5" r="111.5" fill="#F74932" stroke="black" stroke-width="6"/>
<path d="M182.048 163.917C179.926 150.943 168.494 141.644 155.47 142.282C142.446 142.92 131.972 153.324 131.134 166.436C104.864 165.608 95.5364 159.414 97.0596 146.82C97.6244 142.11 100.448 139.591 105.634 138.366C108.783 137.624 112.274 137.52 115.44 137.814C115.731 137.848 116.039 137.865 116.33 137.9C118.264 138.366 120.232 138.763 122.2 139.073C128.036 140.039 133.975 140.522 139.622 140.212C155.504 139.349 166.32 132.293 166.868 117.317C167.399 102.808 157.507 92.525 141.556 85.6411C136.439 83.4328 131.014 81.7247 125.589 80.4308C123.141 79.8442 121.088 79.4474 119.565 79.1886C118.213 66.0937 107.328 56.1043 94.27 56.0008C81.2119 55.8973 70.1562 65.6796 68.5817 78.7573C67.0072 91.8349 75.4274 103.998 88.126 107.035C100.825 110.071 113.78 103.015 118.196 90.6272C119.804 90.9205 121.396 91.2483 122.987 91.6279C127.814 92.7665 132.64 94.2848 137.089 96.2171C149.189 101.427 155.795 108.311 155.487 116.903C155.213 124.598 149.737 128.152 139.023 128.739C134.317 128.997 129.166 128.583 124.083 127.738C122.662 127.496 121.362 127.255 120.215 126.996C119.548 126.858 119.085 126.737 118.88 126.686L118.35 126.582C117.973 126.53 117.34 126.444 116.518 126.358C112.24 125.961 107.602 126.099 103.084 127.151C93.6368 129.377 87.0136 135.295 85.7814 145.405C83.0945 167.178 99.2331 177.271 133.016 177.995C137.997 190.141 151.226 196.611 163.753 193.005C176.298 189.4 184.17 176.891 182.048 163.917ZM94.0133 96.2516C86.1408 96.2516 79.7573 89.8163 79.7573 81.88C79.7573 73.9437 86.1408 67.5084 94.0133 67.5084C101.886 67.5084 108.269 73.9437 108.269 81.88C108.269 89.8163 101.886 96.2516 94.0133 96.2516ZM156.736 182.481C148.864 182.481 142.48 176.046 142.48 168.11C142.48 160.173 148.864 153.738 156.736 153.738C164.609 153.738 170.993 160.173 170.993 168.11C170.993 176.046 164.609 182.481 156.736 182.481Z" fill="white"/>
</svg>
