<svg width="192" height="192" viewBox="0 0 192 192" fill="none" xmlns="http://www.w3.org/2000/svg">
<circle cx="96" cy="96" r="93" fill="white" stroke="#14453E" stroke-width="6"/>
<path d="M145.831 81.2467C147.148 86.8817 147.807 91.4434 144.221 106.47C140.709 121.43 149.27 124.516 129.002 148.465C120.733 158.259 100.684 155.508 84.4402 145.379C78.9524 141.957 76.6109 133.169 72.5133 126.931C69.2938 122.034 67.8303 127.132 63.5864 122.906C57.8058 117.136 50.8546 105.531 54.2936 85.0034C59.8546 51.7298 88.611 47.839 109.904 51.5286C131.343 55.2853 142.319 66.4212 145.831 81.2467Z" fill="white"/>
<path d="M67.245 128.876C65.562 126.26 63.3669 123.979 61.3181 121.564C59.3425 119.082 57.7327 116.331 56.4156 113.514C47.7082 93.9254 51.0741 66.354 72.4402 54.8156C81.2939 50.1198 91.9769 48.9793 101.928 49.7172C123.221 51.126 142.758 60.1152 147.368 80.777C149.855 89.9004 146.49 99.2921 144.587 108.214C143.709 112.642 144.441 117.203 144.368 121.765C144.294 126.394 142.904 131.023 141.002 135.316C139.831 138.268 137.782 140.884 135.66 143.299C132.148 147.19 128.636 151.148 124.172 154.167C123.148 154.837 121.319 155.173 120.075 155.307C116.636 155.777 113.27 155.911 109.831 155.71C96.3672 155.173 81.9524 149.202 76.5377 137.262C76.3182 136.792 77.0499 136.457 77.3426 136.859C84.3671 147.056 97.2452 152.087 110.05 152.758C114.001 152.959 118.026 152.892 121.904 152.154C123.806 151.282 125.489 149.739 127.099 148.33C131.05 144.708 135.075 140.817 137.929 136.389C141.368 130.419 143.27 123.912 142.685 117.136C142.538 114.118 142.465 110.965 143.124 107.946C143.709 104.927 144.441 102.043 144.88 98.9567C145.319 96.005 145.538 92.9863 145.538 90.0346C145.173 81.3808 142.099 72.4586 136.099 65.7503C122.855 50.6564 91.5379 46.6985 73.9036 57.0294C62.7815 63.3352 57.5864 75.142 55.9034 86.6133C53.3424 100.365 54.0741 113.916 66.0011 123.912L69.5133 127.266C70.9036 128.742 68.4157 130.486 67.245 128.876Z" fill="black"/>
<path d="M75.8789 107.543C75.8789 107.543 73.6106 97.4808 62.9276 98.6883C53.708 99.7616 50.4884 120.021 71.4154 125.656" fill="white"/>
<path d="M70.4645 116.868C68.7816 115.996 67.6108 114.52 67.5377 112.709C67.6108 111.367 67.8303 109.824 67.4645 108.483C67.245 107.208 65.7815 106.873 64.684 106.94C63.5132 107.141 62.7815 108.483 62.562 109.556C62.562 109.623 62.4888 109.824 62.4888 109.891C62.4157 110.227 61.8303 110.227 61.6839 109.891C60.7327 107.275 62.8547 104.391 65.9279 104.726C70.245 104.994 70.8304 109.153 70.0255 112.306C69.5865 113.648 70.1718 114.856 70.9767 115.996L71.1231 116.197C71.4889 116.6 70.9035 117.136 70.4645 116.868Z" fill="black"/>
<path d="M129.001 100.433C130.099 105.196 132.148 109.623 134.709 113.782C136.977 118.881 131.123 123.711 125.928 123.509C125.343 123.509 125.27 122.771 125.782 122.637C129.075 121.698 132.075 119.686 132.587 116.6C132.806 115.661 132.514 114.856 132.001 114.051C129.587 109.891 128.123 105.128 128.489 100.433C128.489 100.097 129.001 100.097 129.001 100.433Z" fill="black"/>
<path d="M75.5133 107.611C73.8304 103.653 70.1718 99.8959 65.2693 99.963C64.8303 99.8959 64.0986 100.03 63.6595 100.03C62.4156 100.097 61.3912 100.5 60.44 101.305C55.757 105.598 56.5619 113.179 60.3668 117.941C61.6839 119.619 63.3669 121.094 65.2693 122.302C67.1718 123.509 69.2937 124.449 71.5621 125.254C72.0743 125.388 71.8547 126.126 71.3425 126.059C66.4401 125.119 61.7571 122.906 58.5376 119.216C53.5619 113.715 52.5375 104.525 58.4644 99.158C59.7815 98.0847 61.6107 97.2797 63.44 97.2797C64.0254 97.2797 64.9035 97.1455 65.4888 97.2797C68.562 97.4138 71.4889 98.8226 73.3913 101.036C75.0743 102.915 76.0255 105.196 76.3182 107.476C76.3182 107.879 75.6597 108.013 75.5133 107.611Z" fill="black"/>
<path d="M123.441 130.218C118.758 134.31 109.904 131.023 107.563 126.059C107.27 125.455 108.002 124.918 108.587 125.186C109.831 125.79 110.928 126.394 112.099 126.864C115.465 128.272 118.977 129.413 122.709 129.077C123.441 128.943 123.953 129.748 123.441 130.218Z" fill="black"/>
<path d="M101.709 107.275C99.9529 107.208 98.6358 105.866 98.7822 104.256L98.8553 102.378C98.9285 100.768 100.392 99.5605 102.148 99.6946C103.904 99.7617 105.221 101.103 105.075 102.713L105.002 104.592C104.929 106.135 103.465 107.342 101.709 107.275Z" fill="black"/>
<path d="M132.514 108.281C130.904 108.214 129.66 106.94 129.733 105.464L129.807 103.72C129.88 102.244 131.27 101.103 132.88 101.171C134.49 101.238 135.734 102.512 135.66 103.988L135.587 105.732C135.514 107.208 134.124 108.348 132.514 108.281Z" fill="black"/>
<path d="M108.294 103.653C105.88 102.177 103.246 101.17 100.319 101.707C99.3675 101.841 98.4163 102.11 97.8309 102.713C97.6114 102.982 97.0992 102.915 97.0992 102.512C97.1724 101.17 98.4163 100.298 99.587 99.7617C101.855 98.6884 105.002 98.8896 107.051 100.298C107.782 100.701 110.27 103.183 108.953 103.72C108.66 103.854 108.514 103.787 108.294 103.653Z" fill="black"/>
<path d="M129.221 103.988C129.221 101.17 133.026 100.164 135.368 101.17C136.685 101.707 137.636 102.78 138.002 104.055C138.148 104.458 137.49 104.793 137.197 104.458C135.953 103.116 133.831 102.445 132.148 103.25C131.636 103.518 131.563 103.72 131.417 103.988C131.417 105.33 129.295 105.263 129.221 103.988Z" fill="black"/>
<path d="M111.807 92.5838C113.343 93.0534 114.88 91.7788 114.587 90.2358C114.441 89.4308 114.075 88.6258 113.343 88.0221C111.148 86.2108 102.075 84.6008 96.587 86.9487C91.7577 89.0954 104.782 90.4371 111.807 92.5838Z" fill="black"/>
<path d="M133.685 93.6571C132.441 94.0596 131.124 92.8521 131.344 91.4434C131.417 90.7055 131.71 89.9675 132.295 89.4309C134.051 87.8209 140.051 86.5463 143.856 89.0284C147.149 91.108 139.393 91.7117 133.685 93.6571Z" fill="black"/>
<path d="M153.002 67.159C149.197 37.3738 116.929 27.3112 123.148 47.168C123.148 47.168 114.66 34.6904 95.5626 34.0196C79.1722 33.4829 89.1235 44.1492 89.1235 44.1492C89.1235 44.1492 76.3917 37.4409 54.8061 47.5034C36.0011 56.2914 53.4159 64.006 53.4159 64.006C53.4159 64.006 39.2206 70.9156 39.0011 85.8082C38.9279 89.6991 42.4402 95.6696 50.7817 93.7241C48.6597 108.55 58.5379 120.692 63.0745 125.656C68.9282 132.096 69.4404 136.993 69.4404 136.993C72.4404 135.45 68.9282 128.541 69.0014 124.918C50.7085 118.478 54.0013 99.7617 62.9282 98.6883C72.2941 97.615 75.221 105.263 75.7332 107.141C77.2698 105.464 77.7088 98.9567 78.5868 92.047C81.2942 91.242 83.7088 90.3699 85.6845 89.2295C93.4406 85.0032 97.0992 77.6911 105.002 73.3978C118.831 65.8173 122.416 82.9236 129.807 76.6178C138.368 69.3727 144.587 75.1419 146.49 84.0641C147.222 87.2841 151.685 87.0158 152.344 83.7957C153.368 79.0999 153.807 73.4648 153.002 67.159Z" fill="black"/>
</svg>
