<svg width="198" height="198" viewBox="0 0 198 198" fill="none" xmlns="http://www.w3.org/2000/svg">
<circle cx="98.526" cy="98.526" r="93.526" fill="white" stroke="#FDB010" stroke-width="10"/>
<g filter="url(#filter0_n_98_184)">
<path d="M43.4285 75.8854C41.925 82.902 41.1732 88.5822 45.2662 107.293C49.2757 125.921 39.5026 129.763 62.6407 159.584C72.0797 171.779 94.9673 168.354 113.511 155.741C119.776 151.481 122.449 140.539 127.127 132.77C130.802 126.672 132.473 133.021 137.318 127.758C143.917 120.575 151.852 106.124 147.926 80.5632C141.578 39.1317 108.75 34.2869 84.4423 38.8811C59.9677 43.5589 47.438 57.425 43.4285 75.8854Z" fill="white"/>
</g>
<path d="M133.141 135.193C135.062 131.935 137.568 129.095 139.907 126.088C142.162 122.997 144 119.572 145.504 116.064C155.444 91.6728 151.601 57.3415 127.21 42.9742C117.103 37.127 104.908 35.7069 93.5473 36.6258C69.2397 38.3799 46.9369 49.5731 41.6744 75.3007C38.8344 86.661 42.6768 98.3553 44.8486 109.465C45.851 114.978 45.0157 120.658 45.0992 126.338C45.1827 132.102 46.7698 137.866 48.9416 143.212C50.2781 146.887 52.617 150.145 55.0394 153.152C59.0489 157.997 63.0584 162.925 68.1538 166.684C69.3232 167.519 71.4115 167.937 72.8316 168.104C76.7575 168.689 80.6 168.856 84.5259 168.605C99.8957 167.937 116.351 160.503 122.533 145.634C122.783 145.049 121.948 144.632 121.614 145.133C113.595 157.83 98.8933 164.094 84.2753 164.93C79.7646 165.18 75.1704 165.097 70.7433 164.178C68.5715 163.092 66.6502 161.171 64.8126 159.417C60.3019 154.906 55.7077 150.061 52.45 144.548C48.524 137.114 46.3522 129.011 47.0204 120.575C47.1875 116.816 47.271 112.89 46.5192 109.131C45.851 105.372 45.0157 101.78 44.5145 97.9377C44.0133 94.2623 43.7627 90.5034 43.7627 86.828C44.1804 76.0525 47.6887 64.9429 54.5382 56.5897C69.6574 37.7952 105.409 32.8669 125.54 45.7307C138.236 53.5826 144.167 68.2841 146.088 82.5679C149.012 99.6918 148.177 116.565 134.561 129.011L130.552 133.188C128.964 135.026 131.805 137.197 133.141 135.193Z" fill="black"/>
<g filter="url(#filter1_n_98_184)">
<path d="M123.285 108.63C123.285 108.63 125.874 96.0998 138.07 97.6034C148.595 98.9399 152.27 124.166 128.38 131.183" fill="white"/>
</g>
<path d="M129.466 120.24C131.387 119.155 132.723 117.317 132.807 115.062C132.723 113.391 132.473 111.47 132.89 109.799C133.141 108.212 134.812 107.794 136.065 107.878C137.401 108.128 138.236 109.799 138.487 111.136C138.487 111.219 138.571 111.47 138.571 111.553C138.654 111.971 139.322 111.971 139.489 111.553C140.575 108.295 138.153 104.704 134.645 105.121C129.716 105.455 129.048 110.634 129.967 114.56C130.468 116.231 129.8 117.734 128.881 119.155L128.714 119.405C128.296 119.906 128.964 120.575 129.466 120.24Z" fill="black"/>
<path d="M62.6409 99.7753C61.3879 105.706 59.049 111.219 56.1255 116.398C53.536 122.746 60.2185 128.761 66.1492 128.51C66.8174 128.51 66.901 127.591 66.3163 127.424C62.5574 126.255 59.1326 123.749 58.5479 119.906C58.2973 118.737 58.6314 117.734 59.2161 116.732C61.9726 111.553 63.6433 105.622 63.2256 99.7753C63.2256 99.3576 62.6409 99.3576 62.6409 99.7753Z" fill="black"/>
<path d="M123.702 108.713C125.623 103.785 129.8 99.1071 135.396 99.1906C135.898 99.1071 136.733 99.2741 137.234 99.2741C138.654 99.3576 139.824 99.8588 140.909 100.861C146.255 106.207 145.337 115.646 140.993 121.577C139.489 123.665 137.568 125.503 135.396 127.006C133.225 128.51 130.802 129.679 128.213 130.682C127.628 130.849 127.879 131.768 128.463 131.684C134.06 130.515 139.406 127.758 143.081 123.164C148.761 116.314 149.931 104.871 143.165 98.1882C141.661 96.8517 139.573 95.8493 137.485 95.8493C136.816 95.8493 135.814 95.6823 135.146 95.8493C131.638 96.0164 128.296 97.7705 126.124 100.527C124.203 102.866 123.117 105.706 122.783 108.546C122.783 109.047 123.535 109.214 123.702 108.713Z" fill="black"/>
<path d="M69.4198 140.341C69.3746 141.065 69.9178 142.333 70.9137 143.238C76.0289 140.114 78.3376 141.744 78.3376 141.744C80.1483 138.983 79.7409 135.226 75.3499 138.077C72.317 140.069 70.4157 140.386 69.4198 140.341Z" fill="black"/>
<path d="M70.9589 143.283C72.0453 144.234 73.675 144.822 75.8931 143.917C76.9342 143.509 77.7491 142.695 78.3828 141.789C78.3375 141.789 76.0741 140.16 70.9589 143.283Z" fill="white"/>
<path d="M68.5598 140.205C68.5598 140.205 70.461 141.246 75.35 138.123C81.1895 134.365 80.0125 142.242 75.8932 143.917C71.5927 145.682 69.3746 141.835 69.4199 140.386" stroke="black" stroke-width="3" stroke-miterlimit="10" stroke-linecap="round" stroke-linejoin="round"/>
<path d="M78.3373 141.789C78.3373 141.789 76.0287 140.16 70.9134 143.283" stroke="black" stroke-width="3" stroke-miterlimit="10" stroke-linecap="round" stroke-linejoin="round"/>
<path d="M86.2797 103.785C89.0363 101.947 92.0434 100.694 95.3846 101.362C96.4705 101.529 97.5564 101.864 98.2247 102.615C98.4753 102.949 99.06 102.866 99.06 102.365C98.9765 100.694 97.5564 99.6082 96.2199 98.94C93.6305 97.6035 90.0386 97.8541 87.6998 99.6082C86.8644 100.109 84.0244 103.2 85.5279 103.868C85.8621 104.035 86.0291 103.952 86.2797 103.785Z" fill="black"/>
<path d="M62.3898 104.202C62.3898 100.694 58.0462 99.4412 55.3732 100.694C53.8696 101.362 52.7837 102.699 52.3661 104.286C52.199 104.787 52.9508 105.205 53.2849 104.787C54.705 103.117 57.1274 102.281 59.0486 103.284C59.6333 103.618 59.7168 103.868 59.8839 104.202C59.8839 105.873 62.3063 105.79 62.3898 104.202Z" fill="black"/>
<path d="M82.2702 90.0022C80.516 90.5869 78.7619 88.9998 79.096 87.0786C79.263 86.0762 79.6807 85.0738 80.516 84.322C83.0219 82.0667 93.3798 80.062 99.6446 82.9855C105.158 85.6585 90.2892 87.3292 82.2702 90.0022Z" fill="black"/>
<path d="M57.2941 91.3387C58.7142 91.8399 60.2177 90.3363 59.9671 88.5822C59.8836 87.6633 59.5495 86.7445 58.8812 86.0762C56.8765 84.0715 50.0269 82.4844 45.6833 85.5751C41.9244 88.1645 50.7787 88.9163 57.2941 91.3387Z" fill="black"/>
<path d="M44.5357 61.7979C43.0496 57.4855 43.6753 51.9971 48.7593 45.0974C66.045 21.7324 121.735 30.8275 121.735 30.8275C121.735 30.8275 115.868 32.3956 109.22 35.6103C127.992 33.9638 141.367 38.0409 153.334 36.7864C153.334 36.7864 147.937 43.0588 135.579 48.1552C147.702 52.6244 157.479 62.6603 166.083 85.0844C166.083 85.0844 160.217 81.3994 150.596 78.1063C156.15 98.7271 148.563 114.408 142.931 124.209C139.568 130.325 137.691 133.069 135.266 137.381C131.903 143.418 123.455 144.955 123.455 144.955C122.673 130.998 131.121 131.266 131.121 131.266C150.674 123.739 147.155 101.863 137.612 100.609C127.601 99.3543 124.472 108.293 123.925 110.488C122.047 108.293 123.768 99.9032 123.455 91.3569C122.047 113.938 109.611 136.362 109.611 136.362C109.611 136.362 112.74 85.5549 100.695 75.2053C100.46 74.9701 100.147 74.7349 99.9124 74.578C102.494 89.3184 95.9234 95.9045 95.9234 95.9045C95.4541 81.3994 91.9344 74.4996 87.4761 71.7554C83.6435 72.9315 79.6545 74.3428 75.2745 75.4405C72.8498 76.0678 70.2687 76.6166 67.5311 77.0086C67.0618 77.087 66.5925 77.087 66.1232 77.087C61.0392 77.087 56.1898 73.7156 52.5137 74.3428C51.2622 74.578 50.3236 75.5189 49.9326 76.7734C49.6197 77.9495 49.3068 79.1256 48.994 80.3801C47.7425 85.9469 44.8485 130.638 44.3792 126.483C42.8932 115.036 15.8305 76.8518 44.5357 61.7979Z" fill="black"/>
<defs>
<filter id="filter0_n_98_184" x="42.2284" y="37.4708" width="106.742" height="129.692" filterUnits="userSpaceOnUse" color-interpolation-filters="sRGB">
<feFlood flood-opacity="0" result="BackgroundImageFix"/>
<feBlend mode="normal" in="SourceGraphic" in2="BackgroundImageFix" result="shape"/>
<feTurbulence type="fractalNoise" baseFrequency="2 2" stitchTiles="stitch" numOctaves="3" result="noise" seed="4667" />
<feColorMatrix in="noise" type="luminanceToAlpha" result="alphaNoise" />
<feComponentTransfer in="alphaNoise" result="coloredNoise1">
<feFuncA type="discrete" tableValues="1 1 1 1 1 1 1 1 1 1 1 1 1 1 1 1 1 1 1 1 1 1 1 1 1 1 1 1 1 1 1 1 1 1 1 1 1 1 1 1 1 1 1 1 1 1 1 1 1 1 1 0 0 0 0 0 0 0 0 0 0 0 0 0 0 0 0 0 0 0 0 0 0 0 0 0 0 0 0 0 0 0 0 0 0 0 0 0 0 0 0 0 0 0 0 0 0 0 0 0 "/>
</feComponentTransfer>
<feComposite operator="in" in2="shape" in="coloredNoise1" result="noise1Clipped" />
<feFlood flood-color="rgba(0, 0, 0, 0.35)" result="color1Flood" />
<feComposite operator="in" in2="noise1Clipped" in="color1Flood" result="color1" />
<feMerge result="effect1_noise_98_184">
<feMergeNode in="shape" />
<feMergeNode in="color1" />
</feMerge>
</filter>
<filter id="filter1_n_98_184" x="123.285" y="97.4781" width="22.9461" height="33.7048" filterUnits="userSpaceOnUse" color-interpolation-filters="sRGB">
<feFlood flood-opacity="0" result="BackgroundImageFix"/>
<feBlend mode="normal" in="SourceGraphic" in2="BackgroundImageFix" result="shape"/>
<feTurbulence type="fractalNoise" baseFrequency="2 2" stitchTiles="stitch" numOctaves="3" result="noise" seed="4667" />
<feColorMatrix in="noise" type="luminanceToAlpha" result="alphaNoise" />
<feComponentTransfer in="alphaNoise" result="coloredNoise1">
<feFuncA type="discrete" tableValues="1 1 1 1 1 1 1 1 1 1 1 1 1 1 1 1 1 1 1 1 1 1 1 1 1 1 1 1 1 1 1 1 1 1 1 1 1 1 1 1 1 1 1 1 1 1 1 1 1 1 1 0 0 0 0 0 0 0 0 0 0 0 0 0 0 0 0 0 0 0 0 0 0 0 0 0 0 0 0 0 0 0 0 0 0 0 0 0 0 0 0 0 0 0 0 0 0 0 0 0 "/>
</feComponentTransfer>
<feComposite operator="in" in2="shape" in="coloredNoise1" result="noise1Clipped" />
<feFlood flood-color="rgba(0, 0, 0, 0.35)" result="color1Flood" />
<feComposite operator="in" in2="noise1Clipped" in="color1Flood" result="color1" />
<feMerge result="effect1_noise_98_184">
<feMergeNode in="shape" />
<feMergeNode in="color1" />
</feMerge>
</filter>
</defs>
</svg>
