<svg width="25" height="25" viewBox="0 0 25 25" fill="none" xmlns="http://www.w3.org/2000/svg">
<path d="M24.4142 2C24.4142 0.895431 23.5188 1.12907e-07 22.4142 9.55844e-07L4.41421 1.20872e-06C3.30965 5.34375e-07 2.41421 0.895432 2.41421 2C2.41421 3.10457 3.30965 4 4.41421 4L20.4142 4L20.4142 20C20.4142 21.1046 21.3096 22 22.4142 22C23.5188 22 24.4142 21.1046 24.4142 20L24.4142 2ZM1.41422 23L2.82843 24.4142L23.8284 3.41421L22.4142 2L21 0.585787L1.54972e-06 21.5858L1.41422 23Z" fill="white"/>
</svg>
