<svg width="22" height="33" viewBox="0 0 22 33" fill="none" xmlns="http://www.w3.org/2000/svg">
<path d="M6.08563 21.2052C5.24208 23.6743 4.35605 26.1751 3.49928 28.5938C3.17883 29.4981 2.85884 30.4026 2.53931 31.307C2.35841 31.8205 2.21506 32.4021 2.80942 32.8083C2.97293 32.9287 3.16884 32.9955 3.37107 33C3.74309 33 4.06636 32.7507 4.34581 32.4791C4.87746 31.964 5.42671 31.4485 5.95836 30.9503C7.14434 29.8379 8.37127 28.6877 9.4786 27.461C11.3989 25.3335 13.2805 23.1067 15.1002 20.9532C15.8242 20.0965 16.5497 19.2411 17.2761 18.387C18.4504 17.0117 19.6387 15.6089 20.7879 14.2521L21.5121 13.3973C21.8659 12.9798 22.1583 12.5103 21.9039 11.905C21.656 11.3151 21.1405 11.2216 20.621 11.2084C19.5465 11.1814 18.4723 11.1522 17.3981 11.1208C16.6552 11.0997 15.9122 11.079 15.1694 11.0588C14.9712 11.0534 14.7749 11.0548 14.5482 11.0562L14.3796 11.0571C14.4 10.9968 14.4194 10.9387 14.4382 10.8829C14.5105 10.6671 14.573 10.4807 14.6427 10.2999C14.9685 9.45009 15.2949 8.60051 15.622 7.7511C16.2627 6.08459 16.9261 4.36173 17.5703 2.66395C17.7556 2.17389 17.9039 1.67039 18.0139 1.15775C18.0461 1.04364 18.0542 0.923988 18.0378 0.806515C18.0213 0.689044 17.9808 0.576368 17.9186 0.475728C17.8521 0.387575 17.7676 0.314762 17.671 0.262158C17.5744 0.209554 17.4678 0.178355 17.3583 0.170647C17.2254 0.15288 17.0926 0.131948 16.9599 0.111014C16.6092 0.0464372 16.2544 0.00931954 15.8982 0H15.8866C14.2625 0.005509 12.6114 0.0242444 11.015 0.0421491C10.0733 0.0527082 9.13163 0.0624887 8.18993 0.0714869C6.91111 0.0823674 6.73608 0.21129 6.3158 1.45057C6.27327 1.57632 6.22628 1.7099 6.17189 1.8362L5.12353 4.26919C4.02506 6.82157 2.8892 9.46059 1.76252 12.0518C1.54359 12.556 1.3044 13.0626 1.07307 13.5524C0.810923 14.1075 0.539891 14.6817 0.296014 15.2573C-0.0379703 16.0441 -0.0870509 16.5567 0.137195 16.9199C0.361442 17.2831 0.834392 17.4615 1.67426 17.5042L2.70212 17.5557C3.36082 17.5885 4.01945 17.6222 4.67797 17.6569C5.22939 17.6868 5.78042 17.7205 6.36346 17.7561L7.03149 17.7966C6.94015 18.1357 6.85428 18.4728 6.76976 18.8002C6.55492 19.6368 6.35172 20.4269 6.08563 21.2052ZM12.4478 11.3001C12.3558 11.7669 12.3951 12.0894 12.5706 12.3154C12.746 12.5414 13.0405 12.6526 13.5007 12.6719C14.7928 12.7257 16.1065 12.7582 17.3771 12.7897C17.881 12.8021 18.3848 12.815 18.8887 12.8285H18.9215C18.9919 12.8285 19.0619 12.8338 19.1313 12.8443C17.7531 14.4557 16.4005 16.1262 15.0912 17.744C12.2406 21.2661 9.29672 24.9032 5.95237 28.0819C6.08433 27.6786 6.21734 27.2756 6.35148 26.873C6.7877 25.5581 7.23766 24.1986 7.62576 22.8438C7.95361 21.6983 8.21477 20.5148 8.46737 19.3702C8.56552 18.9258 8.66361 18.4815 8.76544 18.0383C8.81051 17.8207 8.83263 17.5988 8.83134 17.3764C8.84497 16.2883 8.48773 15.9152 7.41461 15.8991C6.24948 15.8816 5.06505 15.8762 3.91955 15.8715C3.45116 15.8695 2.98281 15.8671 2.51442 15.8645C2.41968 15.8645 2.32517 15.8638 2.22047 15.8638H1.80299C2.11353 15.1927 2.42454 14.5248 2.7358 13.8603C4.69091 9.6724 6.53826 5.71546 7.8558 1.50193H16.2495C16.2382 1.53843 16.2276 1.57286 16.2176 1.60537C16.1726 1.75232 16.1402 1.85851 16.099 1.95974C15.7364 2.85433 15.3731 3.7486 15.0093 4.64255C14.314 6.35328 13.5944 8.12214 12.8938 9.8651C12.7002 10.3279 12.5508 10.8085 12.4478 11.3001Z" fill="#FBFBFB"/>
</svg>
