<svg width="32" height="29" viewBox="0 0 32 29" fill="none" xmlns="http://www.w3.org/2000/svg">
<path d="M4.87937 21.9806C5.37637 22.3232 5.44143 22.5722 5.18184 23.1391C4.63877 24.3256 4.01232 25.7317 3.48359 27.1697C3.34271 27.5526 3.33262 28.3006 3.63735 28.6009C3.88671 28.8468 4.30974 28.8804 4.71884 28.9129C4.8398 28.9225 4.95399 28.9316 5.06154 28.9459C5.07894 28.9483 5.09645 28.9494 5.11399 28.9494C5.26279 28.9351 5.40608 28.8854 5.53199 28.8044L5.5851 28.7763C6.03346 28.543 6.48225 28.3103 6.93149 28.0783C8.21374 27.4149 9.53955 26.7286 10.8306 26.0284L10.8427 26.022C12.3962 25.1801 13.8623 24.3844 15.6626 24.7341C15.7378 24.7461 15.814 24.7492 15.8899 24.7429C15.914 24.7417 15.9383 24.7407 15.962 24.7404C20.2392 24.7012 23.5349 23.8077 26.334 21.9287C30.6211 19.0505 32.546 14.9316 31.6152 10.6281C30.7535 6.64359 29.0543 4.16436 26.1061 2.58967C23.1087 0.989065 19.731 0.0693595 16.5954 0C16.5942 0.000199579 16.593 0.000199579 16.592 0C12.7216 0.0153687 9.48817 0.657139 6.41643 2.02014C2.69275 3.67207 0.65099 6.04539 0.174708 9.27562C-0.0306004 10.5897 -0.0550897 11.9259 0.10194 13.2466C0.617525 17.2629 2.18035 20.1198 4.87937 21.9806ZM6.19031 25.228C6.44923 24.2984 6.69355 23.4204 6.99828 22.5793C7.47628 21.2609 6.77082 20.5201 6.10334 20.0221C5.0881 19.2649 4.06118 18.3931 3.42569 17.154C1.78453 13.954 1.5612 10.9563 2.74241 7.98959C3.38307 6.38069 4.68365 5.18611 6.83535 4.23004C9.80525 2.91048 12.7612 2.25075 15.6836 2.25075C18.5932 2.26379 21.4663 2.90468 24.1092 4.13007C27.1605 5.51365 28.8526 7.7956 29.4346 11.3117C29.9126 14.1971 29.1182 16.6003 26.9359 18.8745C24.9926 20.8996 22.3724 22.0912 18.6903 22.6246C16.8344 22.8935 14.6393 23.1162 12.43 22.7296C12.1543 22.6825 11.8458 22.8563 11.5963 22.9969C10.1008 23.8429 8.61939 24.6912 7.05112 25.5895L5.90404 26.2462C6.00415 25.8966 6.09843 25.558 6.19031 25.228Z" fill="#FBFBFB"/>
<path d="M10.001 14.3363H10.0195C10.2279 14.3356 10.434 14.293 10.6258 14.2111C10.8177 14.129 10.9913 14.0094 11.1366 13.8591C11.2614 13.7294 11.3588 13.5756 11.4229 13.4071C11.4871 13.2385 11.5166 13.0587 11.5098 12.8783C11.4863 12.5106 11.3286 12.1648 11.0671 11.907C10.8056 11.6493 10.4587 11.4978 10.093 11.4818C9.89878 11.4831 9.70668 11.5232 9.52789 11.5997C9.34911 11.6762 9.18719 11.7876 9.05152 11.9275C8.90362 12.0698 8.7851 12.24 8.7028 12.4285C8.62049 12.617 8.57601 12.8201 8.57192 13.026C8.57082 13.1933 8.60292 13.3591 8.66637 13.5137C8.72979 13.6684 8.82327 13.8085 8.94131 13.9264C9.22675 14.1988 9.60783 14.3462 10.001 14.3363Z" fill="#FBFBFB"/>
<path d="M16.2896 14.7071H16.3029C16.6633 14.7041 17.0079 14.5581 17.2617 14.3007C17.5288 14.0394 17.6826 13.6826 17.6899 13.3078C17.693 12.9336 17.4872 12.4912 17.1529 12.1537C16.9262 11.8977 16.61 11.7398 16.2704 11.7128H16.2661C15.5803 11.7168 14.8974 12.4737 14.8875 13.2408C14.884 13.4325 14.9186 13.6231 14.9891 13.8013C15.0594 13.9795 15.1643 14.1419 15.2978 14.2789C15.4267 14.4128 15.5807 14.5196 15.751 14.5931C15.9213 14.6666 16.1043 14.7053 16.2896 14.7071Z" fill="#FBFBFB"/>
</svg>
