<svg width="194" height="194" viewBox="0 0 194 194" fill="none" xmlns="http://www.w3.org/2000/svg">
<rect x="96.8319" width="136.941" height="136.941" transform="rotate(45 96.8319 0)" fill="white"/>
<path d="M78.6311 128.719C78.6311 128.719 68.758 142.978 69.4985 144.269C71.0934 146.775 79.1058 150.401 80.957 150.202C83.3588 149.889 91.6559 135.535 91.9787 135.725C95.121 136.968 104.149 138.744 107.244 137.547C111.06 136.085 116.263 88.6568 111.478 82.9228C108.374 79.2299 68.2929 112.551 66.0619 117.061C64.8088 119.643 79.0393 128.709 78.6311 128.719Z" fill="#231F20"/>
<path d="M93.7727 49.1552C93.3929 48.9464 93.8201 48.4812 94.6651 47.8641C95.0823 47.6007 95.5465 47.4202 96.0321 47.3325C96.3461 47.3988 96.6541 47.4909 96.9529 47.6078C97.1143 47.6743 98.4054 49.3071 98.8991 49.8767C99.3403 50.4068 99.69 51.0068 99.9339 51.652C100.506 52.9159 100.976 54.2239 101.339 55.5632C101.406 55.8721 101.416 56.1907 101.367 56.5031C101.217 57.5631 101.288 58.6427 101.576 59.6738C101.633 59.8447 101.605 60.0251 101.833 60.177C102.06 60.3289 102.45 63.3572 102.26 63.737C101.804 64.7433 101.424 65.5977 101.007 66.509C100.912 66.604 100.997 66.7843 100.75 66.8793C100.181 67.1071 100.238 67.3919 100.152 67.6672C100.007 68.0585 99.8059 68.4263 99.5541 68.7589C99.3502 68.944 99.1199 69.0976 98.8706 69.2146C98.6997 69.3855 98.0447 69.1482 97.9782 69.0817C97.9118 69.0153 97.4751 68.9583 97.2093 68.9203C97.1132 68.9179 97.0178 68.9052 96.9245 68.8824C96.3884 68.1312 95.9092 67.3411 95.491 66.5185L95.4055 66.0533L95.1872 65.0376C94.9688 64.3066 94.779 63.5471 94.741 63.3952C94.703 63.2433 94.8169 63.0724 94.8929 62.9016C94.9688 62.7307 94.3423 60.6611 94.3328 60.5757C94.3328 60.12 94.0765 59.6928 94.5037 59.1707C94.5986 59.0757 94.5511 58.9713 94.5227 58.8859C94.3801 58.0775 94.3165 57.2573 94.3328 56.4366C94.2853 56.0284 94.1904 55.6297 94.1239 55.2215C94.1283 55.1365 94.1476 55.0529 94.1809 54.9746C94.2192 54.8749 94.2354 54.768 94.2284 54.6613C94.0819 53.6947 93.8435 52.7442 93.5164 51.8228C93.4119 51.6235 93.6018 50.3894 93.4499 50.1425C93.298 49.8957 93.9246 49.2502 93.7727 49.1552Z" fill="#231F20"/>
<path d="M127.769 55.1645C127.607 54.7942 128.243 54.8037 129.325 54.9366C129.819 55.0176 130.295 55.1847 130.73 55.4303C130.944 55.6875 131.129 55.9677 131.281 56.2657C131.357 56.4366 131.272 58.4587 131.291 59.1801C131.293 59.814 131.144 60.4392 130.854 61.0029C130.332 62.1326 129.867 63.2623 129.306 64.354C129.184 64.6037 129.001 64.819 128.775 64.9806C128.034 65.5745 127.464 66.3541 127.123 67.24C127.019 67.3444 126.905 67.4583 127.057 67.7431C126.833 68.8079 126.309 69.7864 125.547 70.5626C124.702 70.9898 123.81 71.3506 122.955 71.7683C122.861 71.8632 122.785 71.9392 122.538 71.8822C121.911 71.6924 121.816 71.9392 121.579 72.0816C121.189 72.2315 120.785 72.3428 120.373 72.4138C120.118 72.376 119.867 72.3157 119.623 72.2335C119.362 72.1152 119.153 71.906 119.035 71.6449C119.006 71.4076 118.693 71.3031 118.522 71.1322C118.457 71.077 118.397 71.0167 118.342 70.9519C118.285 70.8949 118.294 70.2589 118.19 69.5469C118.053 69.0658 118.014 68.5622 118.076 68.0659C118.139 67.9271 118.193 67.7844 118.237 67.6387L118.57 66.7178C118.657 66.3868 118.762 66.0604 118.883 65.74C118.98 65.5702 119.063 65.3924 119.13 65.2084C119.177 65.047 119.357 64.9806 119.557 64.9521C119.756 64.9236 120.497 62.968 120.544 62.9015C120.857 62.5883 120.943 62.1231 121.607 62.0661C121.703 62.047 121.778 61.9721 121.797 61.8763C122.219 61.2311 122.72 60.6411 123.288 60.12C123.517 59.8092 123.723 59.4825 123.905 59.1422C123.905 59.1422 124.019 59.0283 124.076 58.9713C124.159 58.9238 124.228 58.855 124.275 58.7719C124.821 58.0272 125.3 57.2362 125.709 56.4081C125.841 56.2752 126.81 55.6107 126.848 55.3828C126.886 55.155 127.826 55.3164 127.769 55.1645Z" fill="#231F20"/>
<path d="M129.458 84.385C129.287 84.8407 128.727 84.3755 127.901 83.4546C127.548 83.0045 127.28 82.4927 127.113 81.9452C127.136 81.5698 127.196 81.1976 127.294 80.8345C127.36 80.6161 129.097 79.0307 129.601 78.3757C130.118 77.8291 130.729 77.379 131.404 77.0466C132.685 76.3142 134.022 75.6825 135.401 75.1575C135.71 75.0397 136.039 74.988 136.369 75.0056C137.511 75.0216 138.641 74.7644 139.663 74.2556C139.834 74.1797 140.024 74.1607 140.081 73.8379C141.152 73.1283 142.381 72.6945 143.66 72.5753C144.752 72.7746 145.796 72.8126 146.85 72.993C147.002 73.012 147.125 72.8886 147.315 73.1544C147.495 73.5354 147.928 73.7257 148.331 73.6006C148.809 73.5907 149.283 73.6779 149.726 73.8569C150.016 74.0433 150.262 74.2893 150.448 74.5784C150.685 74.8157 150.619 75.8695 150.562 75.9834C150.41 76.3252 150.59 76.7903 150.628 77.208L150.676 77.6542C150.397 78.0866 150.069 78.4848 149.698 78.8409C149.391 79.2457 149.03 79.6066 148.625 79.9136L148.132 80.0845L147.087 80.4642C146.309 80.787 145.502 81.1193 145.341 81.2237C145.179 81.3281 144.951 81.2332 144.752 81.1857C144.553 81.1383 142.35 82.3154 142.246 82.3439C141.724 82.4294 141.287 82.7901 140.603 82.4104C140.499 82.3059 140.385 82.4009 140.29 82.4389C139.411 82.7428 138.5 82.9466 137.575 83.0464C137.124 83.1672 136.683 83.3228 136.255 83.5116C136.198 83.5686 136.066 83.4926 135.961 83.4831C135.857 83.4736 135.714 83.4451 135.619 83.4831C134.528 83.7058 133.462 84.0399 132.439 84.4799C132.211 84.5938 130.825 84.4609 130.588 84.6413C130.351 84.8217 129.525 84.2046 129.458 84.385Z" fill="#231F20"/>
</svg>
