<svg width="2459" height="288" viewBox="0 0 2459 288" fill="none" xmlns="http://www.w3.org/2000/svg">
<line x1="0.353553" y1="42.8682" x2="201.91" y2="244.425" stroke="#C4C4C4"/>
<line x1="28.9099" y1="42.8682" x2="230.466" y2="244.425" stroke="#C4C4C4"/>
<line x1="57.4663" y1="42.8682" x2="259.023" y2="244.425" stroke="#C4C4C4"/>
<line x1="86.023" y1="42.8682" x2="287.579" y2="244.425" stroke="#C4C4C4"/>
<line x1="114.579" y1="42.8682" x2="316.136" y2="244.425" stroke="#C4C4C4"/>
<line x1="143.136" y1="42.8682" x2="344.692" y2="244.425" stroke="#C4C4C4"/>
<line x1="171.692" y1="42.8682" x2="373.249" y2="244.425" stroke="#C4C4C4"/>
<line x1="200.249" y1="42.8682" x2="401.805" y2="244.425" stroke="#C4C4C4"/>
<line x1="228.805" y1="42.8682" x2="430.362" y2="244.425" stroke="#C4C4C4"/>
<line x1="257.362" y1="42.8682" x2="458.918" y2="244.425" stroke="#C4C4C4"/>
<line x1="285.918" y1="42.8682" x2="487.474" y2="244.425" stroke="#C4C4C4"/>
<line x1="314.474" y1="42.8682" x2="516.031" y2="244.425" stroke="#C4C4C4"/>
<line x1="343.031" y1="42.8682" x2="544.587" y2="244.425" stroke="#C4C4C4"/>
<line x1="371.587" y1="42.8682" x2="573.144" y2="244.425" stroke="#C4C4C4"/>
<line x1="400.144" y1="42.8682" x2="601.7" y2="244.425" stroke="#C4C4C4"/>
<line x1="428.7" y1="42.8682" x2="630.257" y2="244.425" stroke="#C4C4C4"/>
<line x1="457.257" y1="42.8682" x2="658.813" y2="244.425" stroke="#C4C4C4"/>
<line x1="485.813" y1="42.8682" x2="687.37" y2="244.425" stroke="#C4C4C4"/>
<line x1="514.37" y1="42.8682" x2="715.926" y2="244.425" stroke="#C4C4C4"/>
<line x1="542.926" y1="42.8682" x2="744.482" y2="244.425" stroke="#C4C4C4"/>
<line x1="571.482" y1="42.8682" x2="773.039" y2="244.425" stroke="#C4C4C4"/>
<line x1="600.039" y1="42.8682" x2="801.596" y2="244.425" stroke="#C4C4C4"/>
<line x1="628.595" y1="42.8682" x2="830.152" y2="244.425" stroke="#C4C4C4"/>
<line x1="657.152" y1="42.8682" x2="858.708" y2="244.425" stroke="#C4C4C4"/>
<line x1="685.709" y1="42.8682" x2="887.265" y2="244.425" stroke="#C4C4C4"/>
<line x1="714.265" y1="42.8682" x2="915.821" y2="244.425" stroke="#C4C4C4"/>
<line x1="742.821" y1="42.8682" x2="944.378" y2="244.425" stroke="#C4C4C4"/>
<line x1="771.378" y1="42.8682" x2="972.934" y2="244.425" stroke="#C4C4C4"/>
<line x1="799.934" y1="42.8682" x2="1001.49" y2="244.425" stroke="#C4C4C4"/>
<line x1="828.491" y1="42.8682" x2="1030.05" y2="244.425" stroke="#C4C4C4"/>
<line x1="857.047" y1="42.8682" x2="1058.6" y2="244.425" stroke="#C4C4C4"/>
<line x1="885.604" y1="42.8682" x2="1087.16" y2="244.425" stroke="#C4C4C4"/>
<line x1="914.16" y1="42.8682" x2="1115.72" y2="244.425" stroke="#C4C4C4"/>
<line x1="942.717" y1="42.8682" x2="1144.27" y2="244.425" stroke="#C4C4C4"/>
<line x1="971.273" y1="42.8682" x2="1172.83" y2="244.425" stroke="#C4C4C4"/>
<line x1="999.829" y1="42.8682" x2="1201.39" y2="244.425" stroke="#C4C4C4"/>
<line x1="1028.39" y1="42.8682" x2="1229.94" y2="244.425" stroke="#C4C4C4"/>
<line x1="1056.94" y1="42.8682" x2="1258.5" y2="244.425" stroke="#C4C4C4"/>
<line x1="1085.5" y1="42.8682" x2="1287.06" y2="244.425" stroke="#C4C4C4"/>
<line x1="1114.06" y1="42.8682" x2="1315.61" y2="244.425" stroke="#C4C4C4"/>
<line x1="1142.61" y1="42.8682" x2="1344.17" y2="244.425" stroke="#C4C4C4"/>
<line x1="1171.17" y1="42.8682" x2="1372.72" y2="244.425" stroke="#C4C4C4"/>
<line x1="1199.72" y1="42.8682" x2="1401.28" y2="244.425" stroke="#C4C4C4"/>
<line x1="1228.28" y1="42.8682" x2="1429.84" y2="244.425" stroke="#C4C4C4"/>
<line x1="1256.84" y1="42.8682" x2="1458.39" y2="244.425" stroke="#C4C4C4"/>
<line x1="1285.39" y1="42.8682" x2="1486.95" y2="244.425" stroke="#C4C4C4"/>
<line x1="1313.95" y1="42.8682" x2="1515.51" y2="244.425" stroke="#C4C4C4"/>
<line x1="1342.51" y1="42.8682" x2="1544.06" y2="244.425" stroke="#C4C4C4"/>
<line x1="1371.06" y1="42.8682" x2="1572.62" y2="244.425" stroke="#C4C4C4"/>
<line x1="1399.62" y1="42.8682" x2="1601.18" y2="244.425" stroke="#C4C4C4"/>
<line x1="1428.18" y1="42.8682" x2="1629.73" y2="244.425" stroke="#C4C4C4"/>
<line x1="1456.73" y1="42.8682" x2="1658.29" y2="244.425" stroke="#C4C4C4"/>
<line x1="1485.29" y1="42.8682" x2="1686.84" y2="244.425" stroke="#C4C4C4"/>
<line x1="1513.84" y1="42.8682" x2="1715.4" y2="244.425" stroke="#C4C4C4"/>
<line x1="1542.4" y1="42.8682" x2="1743.96" y2="244.425" stroke="#C4C4C4"/>
<line x1="1570.96" y1="42.8682" x2="1772.51" y2="244.425" stroke="#C4C4C4"/>
<line x1="1599.51" y1="42.8682" x2="1801.07" y2="244.425" stroke="#C4C4C4"/>
<line x1="1628.07" y1="42.8682" x2="1829.63" y2="244.425" stroke="#C4C4C4"/>
<line x1="1656.63" y1="42.8682" x2="1858.18" y2="244.425" stroke="#C4C4C4"/>
<line x1="1685.18" y1="42.8682" x2="1886.74" y2="244.425" stroke="#C4C4C4"/>
<line x1="1713.74" y1="42.8682" x2="1915.3" y2="244.425" stroke="#C4C4C4"/>
<line x1="1742.3" y1="42.8682" x2="1943.85" y2="244.425" stroke="#C4C4C4"/>
<line x1="1770.85" y1="42.8682" x2="1972.41" y2="244.425" stroke="#C4C4C4"/>
<line x1="1799.41" y1="42.8682" x2="2000.97" y2="244.425" stroke="#C4C4C4"/>
<line x1="1827.97" y1="42.8682" x2="2029.52" y2="244.425" stroke="#C4C4C4"/>
<line x1="1856.52" y1="42.8682" x2="2058.08" y2="244.425" stroke="#C4C4C4"/>
<line x1="1885.08" y1="42.8682" x2="2086.63" y2="244.425" stroke="#C4C4C4"/>
<line x1="1913.63" y1="42.8682" x2="2115.19" y2="244.425" stroke="#C4C4C4"/>
<line x1="1942.19" y1="42.8682" x2="2143.75" y2="244.425" stroke="#C4C4C4"/>
<line x1="1970.75" y1="42.8682" x2="2172.3" y2="244.425" stroke="#C4C4C4"/>
<line x1="1999.3" y1="42.8682" x2="2200.86" y2="244.425" stroke="#C4C4C4"/>
<line x1="2027.86" y1="42.8682" x2="2229.42" y2="244.425" stroke="#C4C4C4"/>
<line x1="2056.42" y1="42.8682" x2="2257.97" y2="244.425" stroke="#C4C4C4"/>
<line x1="2084.97" y1="42.8682" x2="2286.53" y2="244.425" stroke="#C4C4C4"/>
<line x1="2113.53" y1="42.8682" x2="2315.09" y2="244.425" stroke="#C4C4C4"/>
<line x1="2142.09" y1="42.8682" x2="2343.64" y2="244.425" stroke="#C4C4C4"/>
<line x1="2170.64" y1="42.8682" x2="2372.2" y2="244.425" stroke="#C4C4C4"/>
<line x1="2199.2" y1="42.8682" x2="2400.75" y2="244.425" stroke="#C4C4C4"/>
<line x1="2227.75" y1="42.8682" x2="2429.31" y2="244.425" stroke="#C4C4C4"/>
<line x1="2256.31" y1="42.8682" x2="2457.87" y2="244.425" stroke="#C4C4C4"/>
</svg>

