<svg width="288" height="288" viewBox="0 0 288 288" fill="none" xmlns="http://www.w3.org/2000/svg">
<g clip-path="url(#clip0_199_124)">
<mask id="mask0_199_124" style="mask-type:alpha" maskUnits="userSpaceOnUse" x="0" y="0" width="288" height="288">
<rect width="288" height="288" fill="white"/>
</mask>
<g mask="url(#mask0_199_124)">
<path d="M-191 144L143.823 478.823M-181.699 134.699L153.124 469.523M-172.399 125.399L162.425 460.222M-163.098 116.098L171.725 450.921M-153.797 106.797L181.026 441.621M-144.497 97.4968L190.327 432.32M-135.196 88.1961L199.627 423.019M-125.895 78.8955L208.928 413.719M-116.595 69.5948L218.229 404.418M-107.294 60.2942L227.529 395.118M-97.9935 50.9935L236.83 385.817M-88.6929 41.6929L246.13 376.516M-79.3922 32.3922L255.431 367.216M-70.0916 23.0916L264.732 357.915M-60.7909 13.7909L274.032 348.614M-51.4903 4.49027L283.333 339.314M-42.1896 -4.81038L292.634 330.013M-32.889 -14.111L301.934 320.712M-23.5883 -23.4117L311.235 311.412M-14.2877 -32.7123L320.536 302.111M-4.98702 -42.013L329.836 292.81M4.31362 -51.3136L339.137 283.51M13.6143 -60.6143L348.438 274.209M22.9149 -69.9149L357.738 264.908M32.2156 -79.2156L367.039 255.608M41.5162 -88.5162L376.34 246.307M50.8169 -97.8169L385.64 237.006M60.1175 -107.118L394.941 227.706M69.4182 -116.418L404.242 218.405M78.7188 -125.719L413.542 209.105M88.0195 -135.019L422.843 199.804M97.3201 -144.32L432.143 190.503M106.621 -153.621L441.444 181.203M115.921 -162.921L450.745 171.902M125.222 -172.222L460.045 162.601M134.523 -181.523L469.346 153.301M143.823 -190.823L478.647 144" stroke="#CDCDCD"/>
</g>
</g>
<defs>
<clipPath id="clip0_199_124">
<rect width="288" height="288" fill="white"/>
</clipPath>
</defs>
</svg>
