<svg width="565" height="921" viewBox="0 0 565 921" fill="none" xmlns="http://www.w3.org/2000/svg">
<path d="M408.336 0C445.169 90.9637 437.551 195.719 385.482 280.979C435.444 260.151 492.245 260.812 541.771 282.967C492.428 200.471 488.142 98.5367 528.916 12.666L911.364 395.114C825.494 435.888 723.562 431.604 641.066 382.263C663.221 431.788 663.885 488.59 643.057 538.552C728.563 486.333 833.676 478.821 924.821 516.018L516.016 924.823C478.975 834.061 486.267 729.45 537.891 644.14C487.755 665.277 430.643 664.717 380.878 642.457C429.857 724.35 434.437 825.395 394.614 910.868L13.1631 529.416C98.6366 489.594 199.684 494.175 281.577 543.156C259.316 493.391 258.756 436.279 279.894 386.143C194.831 437.616 90.5786 445.014 0 408.337L408.336 0Z" fill="#6B00C9"/>
</svg>
