<svg width="590" height="921" viewBox="0 0 590 921" fill="none" xmlns="http://www.w3.org/2000/svg">
<path d="M548.72 0C580.282 2.75392e-06 600.008 34.1667 584.227 61.5L464.462 268.939L-29.6802 268.939L-149.446 61.5C-165.227 34.1667 -145.501 1.14091e-05 -113.939 0L548.72 0ZM548.72 268.939C580.282 268.939 600.008 303.106 584.227 330.439L252.898 904.318C237.117 931.652 197.664 931.652 181.883 904.318L-149.446 330.439C-165.227 303.106 -145.501 268.939 -113.939 268.939H-29.6802L181.883 635.38C197.664 662.713 237.117 662.713 252.898 635.38L464.462 268.939H548.72Z" fill="#C99300"/>
</svg>
