<svg width="119" height="115" viewBox="0 0 119 115" fill="none" xmlns="http://www.w3.org/2000/svg">
<path d="M100.147 25.9558C92.5751 21.2326 84.1147 26.4439 77.7302 29.0956C71.3458 31.7563 70.1814 30.1522 70.1814 30.1522L65.7169 24.8189C62.945 22.5362 65.7169 24.8189 62.945 22.5362C61.5761 21.685 60.1561 21.2178 58.702 21.2178C56.8645 21.2178 55.0838 21.9558 53.3826 23.2802C51.9626 20.5422 50.7186 18.0154 49.7161 15.9083C48.1683 12.6703 46.9272 10.0423 46.8391 10.0929C46.7539 10.1435 47.9496 8.90247 48.2166 6.84297C48.3784 5.63168 48.1881 4.36682 47.6003 3.20314C46.1178 0.265686 42.633 -0.856321 39.8299 0.70318C37.0211 2.26268 35.9533 5.90549 37.4443 8.8489C38.0322 10.0126 38.9268 10.8876 39.9719 11.4262C41.7526 12.3429 43.4084 12.0006 43.3317 12.0423C43.255 12.084 44.675 14.6107 46.4216 17.7357C48.032 20.6166 49.469 23.3189 50.7499 25.8487C49.6337 27.173 48.5687 28.7444 47.5491 30.5123L47.6457 30.1522C47.6457 30.1522 46.4841 31.7533 40.0997 29.0956C33.7153 26.4409 25.2548 21.2297 17.6833 25.9588C11.0859 30.0837 3.86081 33.3515 0.983852 39.3098C0.276682 40.777 0.884451 43.1073 2.21643 43.9734C3.44901 44.774 5.19563 45.5954 7.4563 45.9109C12.4122 46.6043 15.5419 50.3126 20.4949 51.006C25.448 51.6995 33.7863 50.3513 36.2231 48.1787C38.1429 46.4704 40.2957 42.9258 42.7807 41.3574C39.9037 49.7293 37.9555 59.6071 37.325 68.7736C37.2142 70.4135 38.2707 71.0861 39.6964 70.4016C43.8202 68.4165 49.4491 66.6844 56.5691 66.6844C56.7253 66.6844 56.873 66.6844 57.0292 66.6873C65.5408 66.7737 72.7488 69.5355 77.7899 72.2349C79.1843 72.9849 80.2607 72.3301 80.184 70.6873C79.7069 60.8868 77.6479 50.0715 74.5125 41.0478C77.2276 42.405 79.5507 46.3424 81.6097 48.1787C84.0493 50.3513 92.3848 51.6995 97.3379 51.006C102.291 50.3126 105.423 46.6043 110.376 45.9109C115.33 45.2174 117.815 42.1014 117.815 42.1014C116.093 34.289 107.713 30.6819 100.147 25.9558ZM52.0478 48.0894C50.872 48.0894 49.9177 47.0894 49.9177 45.8573C49.9177 44.6252 50.872 43.6252 52.0478 43.6252C53.2235 43.6252 54.1778 44.6252 54.1778 45.8573C54.1778 47.0894 53.2235 48.0894 52.0478 48.0894ZM64.5922 48.0894C63.4164 48.0894 62.4622 47.0894 62.4622 45.8573C62.4622 44.6252 63.4164 43.6252 64.5922 43.6252C65.768 43.6252 66.7222 44.6252 66.7222 45.8573C66.7222 47.0894 65.768 48.0894 64.5922 48.0894Z" fill="#FBFBFB"/>
<circle cx="9.12763" cy="101.464" r="7.62763" stroke="#FBFBFB" stroke-width="3"/>
<circle cx="109.648" cy="100.847" r="7.39359" stroke="#FBFBFB" stroke-width="3"/>
<path d="M11.9438 98.8695H34.7145M34.7145 98.8695H61.2357M34.7145 98.8695L36.901 104.083C42.3768 117.141 61.2357 113.101 61.2357 98.8695M34.7145 98.8695L28.798 84.7607C23.9578 73.2184 32.146 60.3306 44.3195 60.3306H75.3749C85.0236 60.3306 91.838 70.0966 88.7901 79.5564L82.5675 98.8695M61.2357 98.8695H82.5675M61.2357 98.8695C61.2357 111.046 77.7529 113.813 81.4753 102.26L82.5675 98.8695M82.5675 98.8695H105.564M61.2357 99.8576V62.3069" stroke="#FBFBFB" stroke-width="4"/>
</svg>
