<svg width="60" height="60" viewBox="0 0 60 60" fill="none" xmlns="http://www.w3.org/2000/svg">
<path d="M50.6929 13.1332C46.8618 10.7433 42.5809 13.3801 39.3505 14.7219C36.1201 16.0681 35.531 15.2565 35.531 15.2565L33.272 12.5579C31.8695 11.4029 33.272 12.5579 31.8695 11.4029C31.1768 10.9722 30.4583 10.7358 29.7226 10.7358C28.7928 10.7358 27.8918 11.1093 27.0311 11.7794C26.3126 10.394 25.6831 9.11549 25.1759 8.04933C24.3927 6.41093 23.7647 5.08124 23.7202 5.10684C23.6771 5.13244 24.2821 4.50449 24.4171 3.46242C24.4991 2.84953 24.4028 2.20953 24.1053 1.62073C23.3552 0.134432 21.592 -0.433283 20.1736 0.355797C18.7524 1.14488 18.2121 2.98807 18.9666 4.47738C19.264 5.06618 19.7167 5.50891 20.2455 5.78148C21.1465 6.24529 21.9843 6.07211 21.9455 6.09319C21.9067 6.11427 22.6252 7.39276 23.509 8.97394C24.3237 10.4316 25.0509 11.799 25.699 13.079C25.1342 13.7491 24.5953 14.5442 24.0794 15.4387L24.1283 15.2565C24.1283 15.2565 23.5406 16.0666 20.3102 14.7219C17.0798 13.3786 12.7989 10.7418 8.96785 13.1347C5.62967 15.2218 1.97392 16.8753 0.518229 19.89C0.160414 20.6324 0.467934 21.8115 1.14189 22.2498C1.76555 22.6548 2.64931 23.0705 3.79317 23.2301C6.30076 23.581 7.88434 25.4573 10.3905 25.8081C12.8966 26.159 17.1157 25.4769 18.3486 24.3776C19.3201 23.5132 20.4093 21.7197 21.6667 20.9261C20.211 25.1621 19.2252 30.1601 18.9062 34.7982C18.8502 35.628 19.3847 35.9683 20.1061 35.622C22.1926 34.6175 25.0408 33.7411 28.6434 33.7411C28.7224 33.7411 28.7971 33.7411 28.8762 33.7426C33.1829 33.7863 36.83 35.1837 39.3807 36.5496C40.0863 36.9291 40.6309 36.5978 40.5921 35.7665C40.3507 30.8077 39.3089 25.3353 37.7224 20.7695C39.0962 21.4562 40.2717 23.4484 41.3135 24.3776C42.5479 25.4769 46.7655 26.159 49.2717 25.8081C51.7778 25.4573 53.3628 23.581 55.869 23.2301C58.3751 22.8792 59.6325 21.3026 59.6325 21.3026C58.7617 17.3496 54.521 15.5245 50.6929 13.1332ZM26.3557 24.3324C25.7607 24.3324 25.2779 23.8264 25.2779 23.203C25.2779 22.5795 25.7607 22.0736 26.3557 22.0736C26.9506 22.0736 27.4334 22.5795 27.4334 23.203C27.4334 23.8264 26.9506 24.3324 26.3557 24.3324ZM32.7029 24.3324C32.108 24.3324 31.6252 23.8264 31.6252 23.203C31.6252 22.5795 32.108 22.0736 32.7029 22.0736C33.2979 22.0736 33.7807 22.5795 33.7807 23.203C33.7807 23.8264 33.2979 24.3324 32.7029 24.3324Z" fill="url(#paint0_linear_34_184)"/>
<path d="M4.5202 48.2205C6.10549 48.2205 7.5202 49.5967 7.5202 51.4578C7.51997 53.3187 6.10535 54.6942 4.5202 54.6942C2.93505 54.6942 1.52044 53.3187 1.5202 51.4578C1.5202 49.5967 2.93492 48.2205 4.5202 48.2205Z" stroke="black" stroke-width="3"/>
<circle cx="55.5" cy="51.0263" r="3" stroke="black" stroke-width="3"/>
<path d="M6.06369 50.0263H17.5853M17.5853 50.0263H31.0045M17.5853 50.0263L18.6916 52.6645C21.4622 59.2715 31.0045 57.227 31.0045 50.0263M17.5853 50.0263L14.5916 42.8875C12.1425 37.0474 16.2856 30.5263 22.4452 30.5263H38.1587C43.0407 30.5263 46.4887 35.4677 44.9465 40.2542L41.798 50.0263M31.0045 50.0263H41.798M31.0045 50.0263C31.0045 56.1874 39.3619 57.5873 41.2454 51.7416L41.798 50.0263M41.798 50.0263H53.434M31.0045 50.5263V31.5263" stroke="black" stroke-width="4"/>
<defs>
<linearGradient id="paint0_linear_34_184" x1="29.4977" y1="26.3158" x2="30.0493" y2="0.00103347" gradientUnits="userSpaceOnUse">
<stop stop-color="#030104"/>
<stop offset="1" stop-color="#2C9F92"/>
</linearGradient>
</defs>
</svg>

