<svg width="31" height="28" viewBox="0 0 31 28" fill="none" xmlns="http://www.w3.org/2000/svg">
<path d="M18.436 4.22125C19.352 4.22125 20.1922 4.21496 21.0323 4.22311C21.782 4.2302 22.5403 4.18621 23.2794 4.28301C24.8617 4.49063 25.7662 5.43427 25.9269 7.03954C26.031 8.07995 26.0303 9.13092 26.0794 10.2411C26.4673 10.3068 26.8513 10.3935 27.2299 10.501C28.9216 11.0605 30.2017 12.0814 30.7653 13.8398C31.325 15.5888 30.8828 17.0379 29.4476 18.1743C28.6166 18.8323 27.6965 19.3208 26.5491 19.4747C26.6329 20.2165 26.727 20.932 26.7919 21.6511C26.874 22.5603 26.9364 23.4712 26.9974 24.382C27.0057 24.5649 26.9943 24.748 26.9636 24.9285C26.7161 26.5768 25.9418 27.2998 24.2736 27.3559C22.6789 27.4093 21.0814 27.3857 19.4863 27.4347C18.326 27.4706 17.5961 26.9534 17.1905 25.8785C16.982 25.3475 16.7387 24.831 16.4623 24.3324C15.5149 22.5693 13.2906 22.4457 11.9802 23.4937C11.0722 24.2202 10.5456 25.1916 10.2078 26.2814C10.1584 26.4338 10.126 26.5914 10.111 26.751C10.071 27.2557 9.79119 27.564 9.31664 27.6485C8.49041 27.7956 7.65302 28.0183 6.82466 27.9988C5.2788 27.9624 3.73669 27.7767 2.19337 27.6483C2.05813 27.6303 1.92481 27.5999 1.79527 27.5571C0.515003 27.1988 0.0130239 26.5755 0.00356216 25.2452C-0.00843155 23.5528 0.0131696 21.8602 0.0196996 20.1678C0.0204991 19.9624 0.0231311 19.7568 0.0155351 19.5516C-0.00791928 18.9211 0.241187 18.6406 0.885782 18.589C1.40645 18.5468 1.92711 18.5005 2.4487 18.4731C4.1073 18.3862 5.43029 15.6512 4.24385 13.9584C3.7641 13.2741 3.04543 12.9237 2.2056 12.8487C1.8206 12.8142 1.43518 12.7806 1.05152 12.7342C0.899338 12.7283 0.755628 12.6626 0.651465 12.5511C0.547301 12.4396 0.491102 12.2915 0.495036 12.1388C0.494104 10.4973 0.241796 8.84869 0.610536 7.21642C0.645717 7.06066 0.689068 6.90596 0.739308 6.75449C1.10565 5.65071 1.85165 4.96701 3.01331 4.86166C3.94056 4.7777 4.87737 4.79398 5.81008 4.77874C6.51251 4.76725 7.21537 4.77636 7.94672 4.77636C7.9867 4.65524 8.03148 4.52875 8.07199 4.40107C8.79028 2.14057 10.3565 0.725153 12.592 0.150536C14.6131 -0.369 17.2124 0.415778 18.0947 3.13806C18.214 3.50492 18.3273 3.87472 18.436 4.22125ZM1.69609 11.4258C1.9433 11.4258 2.07701 11.4258 2.21068 11.4258C5.02587 11.4189 6.87034 13.733 6.5064 16.4224C6.3802 17.3553 5.92909 18.1447 5.41589 18.9059C4.98563 19.533 4.36002 19.9992 3.63714 20.2313C2.90153 20.507 2.10185 20.5622 1.33555 20.3901C1.31724 20.4885 1.30756 20.5884 1.30673 20.6885C1.44838 22.1438 1.58407 23.5999 1.74412 25.0532C1.79903 25.5509 1.9227 25.6633 2.44349 25.7255C3.28052 25.8253 4.12004 25.9374 4.96093 25.9637C6.23053 26.0038 7.50217 25.9741 8.7767 25.9741C8.78696 25.9617 8.80786 25.9474 8.81359 25.9275C8.85916 25.7745 8.89784 25.62 8.94594 25.4676C9.37385 24.1119 10.0112 22.8901 11.1874 22.028C12.2038 21.2833 13.3379 20.9329 14.596 21.1293C16.7549 21.4665 17.9785 22.8561 18.6546 24.8359C18.7489 25.1119 18.8176 25.3974 18.9027 25.6938C19.1632 25.6938 19.3883 25.7003 19.613 25.6927C20.524 25.6617 21.4353 25.6325 22.3458 25.5906C22.9602 25.5622 23.5752 25.5299 24.187 25.4693C24.816 25.407 24.9394 25.2955 24.9599 24.6621C24.9809 24.0242 24.94 23.3834 24.9082 22.7449C24.8583 21.7422 24.7971 20.7395 24.7321 19.7368C24.7267 19.4882 24.6914 19.2414 24.6269 19.0014C24.3822 18.2354 24.5615 17.8233 25.3227 17.5953C25.8231 17.4454 26.3408 17.3546 26.8495 17.2315C27.5185 17.0759 28.1331 16.7416 28.6283 16.2643C28.7965 16.1084 28.9301 15.919 29.0207 15.708C29.1112 15.4971 29.1565 15.2694 29.1539 15.0398C29.1749 14.3949 28.9908 13.7601 28.628 13.2273C28.0183 12.3687 27.177 11.8512 26.1845 11.5758C25.9683 11.5349 25.745 11.5574 25.5414 11.6408C24.9108 11.868 24.5218 11.6809 24.4094 11.0061C24.3353 10.5321 24.2948 10.0533 24.2882 9.57356C24.2703 8.81953 24.3139 8.06362 24.2826 7.31052C24.2375 6.2276 23.8921 5.8455 22.8449 5.63186C22.6665 5.59584 22.4852 5.57548 22.3032 5.57103C21.2096 5.54322 20.1157 5.52757 19.0223 5.49468C18.7228 5.48572 18.4772 5.48226 18.2177 5.72799C17.8487 6.07706 17.3938 5.99044 17.1025 5.56342C16.9463 5.3126 16.8275 5.0401 16.7502 4.75469C16.6086 4.29786 16.5126 3.82699 16.3782 3.36775C16.1571 2.61224 15.65 2.11423 14.9296 1.83281C13.8478 1.41007 12.784 1.45445 11.7703 2.03335C10.3878 2.82281 9.37273 3.92928 8.98947 5.51476C8.86953 6.01197 8.56998 6.19847 8.12768 6.23336C7.80921 6.24938 7.49009 6.2466 7.17194 6.22507C5.94352 6.17614 4.71988 6.05127 3.48533 6.21251C2.7204 6.31238 2.31742 6.6756 2.10793 7.40824C1.73733 8.70588 1.90332 10.0395 1.69609 11.4258Z" fill="#F4F4F4"/>
</svg>
