<svg width="514" height="628" viewBox="0 0 514 628" fill="none" xmlns="http://www.w3.org/2000/svg">
<path d="M43.1644 69.6518C44.2863 69.6518 45.3622 69.2061 46.1555 68.4129C46.9487 67.6196 47.3944 66.5437 47.3944 65.4218C47.3944 64.3 46.9487 63.2241 46.1555 62.4308C45.3622 61.6375 44.2863 61.1919 43.1644 61.1919C42.003 61.1802 40.9575 61.6967 40.3793 62.1774C39.7791 62.6677 39.4848 63.1096 39.2661 63.4662C39.1585 63.6452 39.0696 63.8243 39.0486 63.8674C39.0125 63.9411 38.9795 64.0121 38.949 64.0811C38.8879 64.2191 38.8363 64.3489 38.7902 64.4739C38.6984 64.7237 38.6279 64.9549 38.5657 65.1833C38.5042 65.4078 38.4469 65.6587 38.423 65.7694C38.3017 66.3192 38.1942 66.9997 38.1213 67.5517C37.9938 68.4964 37.8798 69.7299 37.8109 70.6268C37.7721 71.1244 37.7352 71.6492 37.7001 72.2022C37.6707 72.6665 37.6434 73.1339 37.6167 73.6284C37.5631 74.6203 37.5154 75.6846 37.4791 76.599C37.3216 80.6401 37.2481 84.3437 37.1905 88.3804C37.0859 96.1245 37.0826 103.967 37.111 111.713C37.1732 127.135 37.3745 142.795 37.6133 158.241C38.5606 216.999 40.0205 275.807 41.4852 334.539C41.4931 334.855 41.5011 335.172 41.5091 335.488C43.7957 410.599 41.762 483.559 36.8408 559.804C36.9221 560.43 37.0173 561.049 37.1272 561.662C37.3815 563.203 38.2182 565.063 39.6821 566.331C41.086 567.577 42.6974 568.113 43.8951 568.374C46.4348 568.886 48.3818 568.715 50.285 568.546C54.0616 568.141 57.3969 567.382 60.7579 566.612C67.421 565.044 73.9424 563.297 80.4066 561.725C93.3909 558.535 106.404 555.875 119.581 554.171C119.968 554.121 120.357 554.071 120.745 554.021C213.496 543.592 307.641 556.503 400.372 569.505C400.742 569.559 401.112 569.612 401.481 569.666C416.378 571.857 431.769 573.783 446.598 574.834C447.069 574.883 447.534 574.949 447.992 575.034C451.352 575.321 455.803 578.581 463.175 574.808C469.77 570.319 470.685 564.601 471.276 560.385C471.316 559.96 471.35 559.527 471.379 559.086C470.965 477.925 451.167 403.184 444.824 325.52C444.733 324.607 444.642 323.693 444.553 322.776C431.383 231.829 448.683 150.643 431.171 49.5385C431.06 49.4545 430.949 49.3707 430.838 49.2873C380.372 13.4291 320.35 32.9882 269.653 38.2687C269.598 38.2756 269.433 38.299 269.378 38.3077C269.054 38.3596 268.729 38.4113 268.405 38.4629C212.565 47.344 157.104 56.7201 101.346 64.4111C75.433 68.6841 51.4398 68.4834 23.3601 76.3876C23.1909 76.4865 23.0254 76.5906 22.8638 76.6997C22.33 77.0069 21.4874 78.1205 21.2463 78.6873C20.8525 79.6786 20.797 81.2143 21.2473 82.3269C21.6775 83.452 22.3004 84.1017 22.8132 84.5552C23.8755 85.4445 24.7087 85.7283 25.5136 85.9923C27.1019 86.4641 28.5021 86.5356 29.9013 86.556C32.6772 86.5686 35.3468 86.2342 37.9659 86.2159C35.6751 84.9644 33.4198 83.4265 31.3648 81.9241C30.3492 81.1748 29.3564 80.4174 28.6748 79.7522C28.3492 79.4367 28.0921 79.0858 28.234 79.0793C28.2998 79.0893 28.5293 79.2255 28.7518 79.7491C28.9896 80.2628 28.9613 81.1295 28.7969 81.5281L27.1794 83.5157C27.2358 83.4868 27.2961 83.4553 27.3609 83.4212C49.0384 78.5294 77.4404 78.4174 102.634 75.5801C158.917 70.3104 214.959 63.3355 270.95 54.4303C271.275 54.3785 271.6 54.3267 271.926 54.2747L271.651 54.3137C323.877 48.1393 380.663 32.2928 421.144 62.2257C421.236 62.2951 421.329 62.3647 421.421 62.4345C425.441 133.986 417.484 237.481 428.626 324.334C428.717 325.26 428.808 326.184 428.9 327.107C435.349 404.91 455.031 483.008 455.293 558.023C455.273 558.332 455.249 558.628 455.223 558.91C455.047 561.851 454.757 564.264 455.41 564.514C455.556 564.66 455.649 564.886 455.434 565.15C455.229 565.411 454.748 565.665 454.111 565.83C452.82 566.171 451.026 566.18 449.1 566.041C448.563 566.003 448.031 565.959 447.506 565.906C432.281 564.849 417.706 563.039 402.765 560.855C402.395 560.801 402.024 560.747 401.653 560.694C308.644 547.717 214.287 534.63 119.633 545.266C119.235 545.316 118.838 545.368 118.441 545.419C104.861 547.181 91.4787 549.952 78.316 553.22C71.7771 554.826 65.1881 556.606 58.772 558.13C55.5668 558.878 52.371 559.582 49.4029 559.899C47.9588 560.055 46.5138 560.066 45.7393 559.889C45.3658 559.816 45.2689 559.698 45.4413 559.837C45.6209 559.976 45.7139 560.292 45.6666 560.126C45.5815 559.655 45.5071 559.175 45.4426 558.683C50.3919 486.191 52.2492 409.829 49.9663 335.275C49.9583 334.958 49.9504 334.642 49.9424 334.326C48.4779 275.606 47.0184 216.802 46.0722 158.109C44.636 128.623 48.4569 91.3888 43.1644 69.6518Z" fill="#3C3C3C"/>
<path d="M9.72938 106.113C8.11279 105.33 6.25104 105.22 4.5537 105.809C2.85636 106.398 1.46247 107.637 0.678668 109.254C-0.105136 110.87 -0.214648 112.732 0.374225 114.429C0.963097 116.127 2.20212 117.52 3.81871 118.304C3.81871 118.304 3.81871 118.304 3.81871 118.304C6.44695 137.974 14.8278 175.709 17.7328 204.94C19.3345 218.532 20.6311 232.178 21.5484 245.815C21.5884 246.41 21.6276 247.005 21.666 247.6C25.0121 299.33 29.0947 350.838 31.3629 402.364C31.4308 403.873 31.4976 405.388 31.5633 406.909C33.541 453.676 38.5916 499.953 36.7531 545.731C36.6595 548.027 36.2832 550.31 35.7161 552.574C33.0742 563.845 26.6045 574.857 27.8804 588.095C28.2921 591.29 28.5106 594.245 30.234 599.356C33.3429 608.799 41.654 617.939 50.4965 621.976C59.3142 626.229 67.7478 627.199 75.1787 627.474C90.2884 627.807 103.46 625.139 116.187 622.142C141.495 615.912 165.052 607.222 188.373 598.387C234.577 581.156 280.846 559.327 324.622 550.49C326.354 550.202 328.102 549.92 329.837 549.648C375.083 542.59 421.706 540.833 468.6 540.045C469.404 540.032 470.186 540.033 470.983 540.047C473.598 540.092 476.127 540.571 478.843 541.224C480.229 541.55 481.603 541.923 483.564 542.308C484.586 542.494 485.68 542.712 487.694 542.813C488.729 542.845 490.01 542.894 492.181 542.555C494.246 542.162 498.022 541.484 502.289 537.669C503.905 536.235 505.36 534.625 506.604 532.906C517.536 515.32 513.45 503.081 512.319 492.548C510.462 482.068 507.724 472.733 504.892 463.569C499.167 445.353 492.845 428.053 487.066 410.814C475.457 376.385 465.458 341.979 462.043 307.522C461.811 305.161 461.578 302.796 461.344 300.428C452.763 213.111 443.52 125.8 435.14 38.7582C435.034 37.6343 434.898 36.4952 434.723 35.3367C433.157 27.5121 431.906 15.5534 417.221 6.86463C416.297 6.37435 415.36 5.91404 414.413 5.48522C368.398 -10.051 338.49 11.4302 308.299 20.4272C278.389 31.6709 249.351 42.145 219.524 49.1209C218.483 49.3662 217.447 49.6084 216.416 49.8473C177.147 58.8999 137.164 65.2626 97.8469 65.592C85.4468 65.6702 73.0965 65.1064 61.1273 63.6268L61.181 63.6335C61.0155 63.6125 60.8497 63.5919 60.6837 63.5717C52.0837 62.4511 42.1492 62.6082 33.2429 64.6342C33.2282 64.6374 33.2135 64.6407 33.1989 64.6439C26.1786 66.2624 27.1947 67.7274 24.3083 70.3885C21.5254 72.9812 14.9451 74.7745 6.77405 75.8192C6.93248 83.9862 9.6821 92.0807 17.6027 97.3609C25.4604 102.938 37.6134 101.785 41.1558 100.838C41.1639 100.836 41.172 100.834 41.1801 100.832C46.1885 99.7394 50.6984 99.4565 56.2264 100.13C56.3325 100.142 56.439 100.156 56.5458 100.169C56.5566 100.171 56.5888 100.175 56.5995 100.176C70.5296 101.895 84.3775 102.508 98.0735 102.433C141.413 102.07 183.619 95.2689 224.747 85.8105C225.826 85.5605 226.91 85.3071 227.998 85.0504C290.467 73.1707 359.753 28.4487 399.415 38.6918C399.775 38.8533 400.132 39.0191 400.489 39.1915C399.584 38.704 398.939 38.0559 398.679 37.6771C398.407 37.2875 398.45 37.1655 398.583 37.3241C398.872 37.639 399.416 38.9659 399.652 40.6214C399.721 41.0811 399.781 41.5685 399.828 42.0761C408.251 129.57 417.402 216.666 425.932 303.913C426.164 306.278 426.395 308.639 426.626 310.997C430.501 350.002 441.392 386.82 453.254 422.185C459.158 439.824 465.497 457.265 470.798 474.191C473.417 482.628 475.791 491.029 477.122 498.649C477.788 502.464 478.139 506.082 478.041 508.739C478.005 511.467 477.228 512.727 477.667 511.953C477.756 511.829 477.914 511.69 478.083 511.6C481.762 508.33 484.748 507.91 486.035 507.655C487.424 507.452 487.895 507.527 488.138 507.551C488.562 507.627 488.071 507.681 487.508 507.689C486.306 507.707 484.518 507.639 482.744 507.603C479.135 507.514 475.3 507.521 471.545 507.46C470.391 507.441 469.26 507.439 468.104 507.457C420.684 508.252 372.792 509.54 324.729 517.016C322.889 517.304 321.034 517.603 319.196 517.909C266.306 528.851 222.669 550.565 176.602 567.555C153.819 576.216 130.945 584.561 108.429 590.09C86.8425 596.281 59.8967 595.36 61.2402 588.194C61.3162 588.439 61.1279 587.821 61.0059 587.11C60.8711 586.376 60.7411 585.453 60.6319 584.466C59.7213 575.604 53.9464 564.337 52.3791 553.463C52.0611 551.061 51.8958 548.676 51.9773 546.302C53.5496 498.957 48.2642 452.424 46.0829 406.243C46.0085 404.713 45.933 403.189 45.8562 401.672C43.2847 349.831 38.5325 298.25 35.1861 246.725C35.1468 246.119 35.1067 245.512 35.066 244.906C34.1315 231.016 32.8138 217.153 31.1876 203.354C29.3356 187.683 27.1006 172.099 24.4068 156.507C23.0584 148.731 21.5964 140.947 19.9415 133.195C19.1035 129.284 18.2259 125.407 17.2241 121.48C16.7457 119.61 16.1789 117.504 15.5769 115.542C15.239 114.448 14.9356 113.505 14.4949 112.329C14.315 111.85 14.0145 111.097 13.7112 110.465C13.6705 110.38 13.6383 110.314 13.5862 110.209C13.5282 110.093 13.468 109.976 13.4046 109.857C13.2777 109.619 13.1393 109.375 12.9753 109.115C12.6579 108.777 12.3735 107.572 9.72938 106.113Z" fill="#3C3C3C"/>
</svg>
