<svg width="40" height="52" viewBox="0 0 40 52" fill="none" xmlns="http://www.w3.org/2000/svg">
<path opacity="0.7" d="M21.9592 9.29195C22.5243 11.1251 22.9014 13.0116 23.0846 14.9225C23.29 16.773 23.3777 18.6135 23.3967 20.4429C23.4157 22.2723 23.3484 24.0985 23.2295 25.9199C23.1106 27.7414 22.9635 29.5475 22.7087 31.3811C22.5218 32.7071 22.3003 34.0346 22.0096 35.3654C21.9411 35.6839 21.8531 36.0533 21.7796 36.4232L21.5724 37.2181C21.4999 37.4964 21.4163 37.7656 21.3241 38.0316C21.1451 38.5754 20.945 39.0725 20.7443 39.5839C20.5705 40.102 20.3706 40.6113 20.1456 41.1097C19.7989 41.7924 19.3534 42.4212 18.8234 42.9759C18.4166 43.3769 17.9374 43.6978 17.4113 43.9215C17.1576 44.0134 16.8924 44.0692 16.6234 44.0875C16.2845 44.1117 15.9467 44.0344 15.6535 43.8656C15.1784 43.5662 14.7977 43.1402 14.5542 42.6357C14.0315 41.6649 13.8063 40.0057 13.8343 38.1551C13.8366 37.2351 13.8891 36.2854 13.9788 35.34L14.0369 34.7947L14.0966 34.3469L14.2153 33.4655C14.5506 31.1098 15.0846 28.7851 15.8115 26.5161C16.548 24.274 17.4356 22.083 18.4683 19.9582L19.8385 17.1795L20.5259 15.8031L20.8725 15.1136L21.2551 14.3939C22.267 12.5282 23.4505 10.759 24.7903 9.10925C26.4915 6.98282 28.4545 5.07682 30.6326 3.43641C31.1676 3.05478 31.7417 2.63445 32.3415 2.28672C32.9189 1.90812 33.5289 1.58136 34.164 1.31031C34.7928 1.0267 35.4616 0.816216 36.1028 0.57606C36.7441 0.335906 37.4275 0.189015 38.1096 0.0707428C39.8266 -0.198709 39.6371 0.321726 38.512 1.29222C38.2342 1.52278 37.9179 1.8408 37.558 2.17153C37.378 2.3369 37.1836 2.50174 36.9913 2.68672L36.4091 3.29306C35.9839 3.66726 35.5733 4.16812 35.1031 4.58366C34.6329 4.99921 34.111 5.40999 33.5506 5.84515C31.6146 7.3681 29.8563 9.10254 28.3091 11.0155C26.6989 12.8656 25.3187 14.9015 24.1987 17.0787C22.985 19.4361 21.8097 21.7691 20.7364 24.0771C19.6706 26.38 18.8162 28.7729 18.1838 31.2265C17.9961 31.9706 17.8339 32.7242 17.6973 33.4873C17.6263 33.8631 17.5724 34.2452 17.5094 34.6384L17.4271 35.2086L17.386 35.4937C17.3234 36.0099 17.3212 36.5311 17.3795 37.047C17.3934 37.1794 17.4236 37.3095 17.4694 37.4344C17.5193 37.5451 17.6288 37.6781 17.764 37.6172C17.9887 37.4726 18.1713 37.2716 18.2933 37.0347C18.4218 36.8068 18.5323 36.5694 18.6235 36.3245L18.7579 35.9482L18.8149 35.7612L18.8927 35.4946C18.9911 35.1485 19.0939 34.7023 19.2008 34.2963C19.3076 33.8904 19.3901 33.4463 19.4747 33.0223C19.6497 32.1717 19.7965 31.3058 19.9204 30.4361C20.171 28.7026 20.3417 26.949 20.432 25.1895C20.5939 21.6789 20.4283 18.1629 19.9374 14.6866C19.7783 13.6407 19.5634 12.6042 19.2935 11.5817C19.0496 10.6109 18.6803 9.67636 18.1949 8.80121C18.008 8.44301 17.7478 8.12793 17.4311 7.87602C17.2333 7.70634 16.9673 7.63735 16.7103 7.68905C15.9094 7.9332 15.195 8.4016 14.6528 9.03805C14.1377 9.558 13.6451 10.159 13.1498 10.7542C12.6545 11.3494 12.2222 12.0215 11.801 12.7025C10.9409 14.0825 10.1699 15.5151 9.49279 16.9917C8.14555 19.9589 7.08718 23.0462 6.33226 26.2111C5.23214 31.0998 4.71388 36.0969 4.78818 41.0991C4.77528 42.1993 4.87604 43.2693 4.81412 44.3705C4.88005 45.8419 4.7486 47.3167 4.42324 48.7559C4.2865 49.1694 4.11205 49.5698 3.90205 49.9521C3.75434 50.2554 3.56473 50.5369 3.33877 50.7884C3.17265 51.0119 2.99219 51.2245 2.79851 51.4249C2.51214 51.6523 2.21984 51.3492 1.82576 50.601C1.65485 50.2221 1.39873 49.7484 1.12992 49.1681C0.867503 48.5021 0.676246 47.8101 0.559288 47.1035C0.396203 45.9424 0.213478 44.7691 0.124151 43.5678C0.0348258 42.3664 0.0141596 41.1761 -1.13771e-05 39.9689C0.0114102 37.5219 0.16212 35.0767 0.451396 32.645C1.04194 27.6337 2.24508 22.7092 4.03411 17.9808C4.7062 16.1737 5.52163 14.4219 6.47265 12.7419C7.45076 10.988 8.59902 9.33288 9.9009 7.80022C10.252 7.38146 10.6319 6.9874 11.0379 6.62093C11.2487 6.43452 11.4698 6.25987 11.7 6.09778C11.9264 5.92551 12.141 5.75855 12.3988 5.59317C13.5268 4.78526 14.8452 4.28242 16.2241 4.13423C16.3295 4.12145 16.4356 4.11577 16.5417 4.11722C16.6537 4.10348 16.7668 4.10187 16.879 4.11241C17.1298 4.11648 17.3794 4.14484 17.6244 4.1971C18.088 4.29157 18.5316 4.46391 18.9362 4.70672C19.5816 5.09579 20.1339 5.61962 20.5553 6.24229C21.2106 7.1566 21.7208 8.1661 22.0682 9.23576L21.9592 9.29195Z" fill="#0D0D0D"/>
</svg>
