<svg width="656" height="723" viewBox="0 0 656 723" fill="none" xmlns="http://www.w3.org/2000/svg">
<path d="M57.0432 449.566C55.2036 463.45 60.3053 474.711 58.7954 491.661C57.224 508.647 54.0169 510.992 53.6019 530.501C53.5306 533.733 53.3722 537.012 53.166 540.148C53.1637 540.185 53.1541 540.298 53.1508 540.336C53.0674 541.23 52.9808 542.115 52.8917 542.99C51.3841 557.835 49.0375 571.226 49.4759 578.105C50.0448 586.822 45.9448 587.414 45.7638 599.715C45.5937 612.062 44.4473 619.382 42.2295 630.016C39.9731 640.585 36.3612 673.481 37.5843 685.514C37.9974 690.01 37.8012 694.697 37.3752 699.245C37.3744 699.274 37.37 699.363 37.368 699.393C37.3412 699.596 37.3136 699.797 37.2853 699.997C36.1561 707.479 33.359 715.029 29.5409 718.899C27.5874 720.857 25.5277 721.543 24.0503 721.946C23.4125 722.111 23.1134 722.17 23.113 722.174C23.113 722.174 23.113 722.174 23.113 722.174C23.113 722.174 23.113 722.174 23.113 722.174C23.113 722.174 23.113 722.174 23.113 722.174C23.116 722.173 23.5699 722.056 24.3461 721.721C28.5332 720.406 31.2172 714.297 30.4212 707.244C30.1939 704.121 30.0207 701.656 30.0732 699.478C30.0771 699.282 30.0819 699.086 30.0875 698.891L30.0803 699.038C30.0235 692.176 31.292 687.896 31.216 674.318C31.18 656.044 29.7989 644.892 33.1165 623.656C36.4504 602.415 30.8994 596.994 37.2027 567.173C39.5634 555.976 40.1994 548.371 40.195 541.797C40.1954 540.893 40.1846 540.001 40.1653 539.115L40.1519 539.283C39.645 529.588 38.0532 521.032 38.7472 503.862C40.0149 473.845 45.3358 436.043 45.9713 417.895C46.6641 399.764 47.2881 375.396 48.9879 349.711C49.7121 338.738 50.0126 326.653 50.2455 314.188C50.28 312.343 50.3134 310.493 50.3471 308.641C50.6225 293.589 50.9398 278.244 51.9397 263.812C53.9222 235.511 56.3242 195.302 57.5811 176.8C58.8434 158.299 59.1391 153.748 58.5648 135.93C58.1258 125.603 58.7291 111.509 58.6497 99.6892C58.6405 99.5118 58.6366 99.3733 58.6251 99.206C58.6076 99.0079 58.5912 98.8363 58.5763 98.6871C58.5615 98.5378 58.5481 98.4107 58.5365 98.302C58.5294 98.203 58.4819 98.0099 58.4633 97.9261C58.4392 97.8273 58.4303 97.7768 58.4227 97.7374C58.4128 97.7312 58.6055 97.7259 58.5723 97.69C58.5543 97.6189 58.321 97.8556 58.2586 97.899C57.8636 98.2784 57.5833 98.5995 57.4918 98.303C57.4452 98.1702 57.4387 97.9249 57.4875 97.6292C57.5 97.5553 57.5162 97.4783 57.5381 97.3984C57.5512 97.3321 57.6441 97.1408 57.74 97.0081C57.8542 96.8653 57.9552 96.7073 58.309 96.5931C58.7539 96.4495 59.2593 96.7625 59.4215 96.974C60.3273 98.1979 60.4472 99.1954 60.7992 100.827C62.2926 109.759 61.8003 116.997 63.035 121.567C65.3882 130.695 66.2542 134.584 64.8993 146.126C63.5236 157.652 66.409 163.12 65.9777 169.827C65.522 176.502 63.856 176.428 64.4805 210.565C65.0593 244.681 64.8371 263.434 64.7982 276.315C64.7672 283.898 63.9828 295.886 63.2849 309.043C63.1872 310.876 63.091 312.73 62.9987 314.593C62.6165 322.313 62.3148 330.145 62.2736 337.29C62.1667 358.366 60.2394 401.152 60.5901 418.442C60.9667 435.762 58.8362 435.672 57.0432 449.566Z" fill="#3C3C3C"/>
<path d="M391.576 586.148C394.442 586.288 397.327 586.12 399.981 585.771L399.921 585.774C400.683 585.67 401.439 585.551 402.19 585.42C412.806 583.569 422.606 579.277 436.609 579.068C455.084 578.79 458.007 582.198 479.046 579.938C500.059 577.671 521.266 578.59 530.513 576.4C539.802 574.204 541.081 578.626 554.333 576.585C567.528 574.536 575.66 574.455 587.367 574.922C599.122 575.413 635.04 573.377 647.553 569.667C648.793 569.306 650.16 568.967 651.35 568.682L650.544 576.403C650.5 576.391 650.452 576.378 650.401 576.364C639.772 573.872 627.531 567.764 619.935 565.628C617.26 564.801 615.15 564.178 613.518 563.764C612.827 563.586 612.505 563.515 612.505 563.516C612.505 563.516 612.505 563.516 612.505 563.516C612.505 563.516 612.505 563.516 612.505 563.516C612.505 563.516 612.505 563.516 612.505 563.516C612.504 563.519 613.008 563.608 613.912 563.755C618.302 564.489 624.874 565.455 632.892 565.606C642.402 565.793 646.113 566.591 653.092 569.13C653.172 569.163 653.25 569.196 653.329 569.229C657.109 570.696 656.595 575.621 652.593 576.277C648.736 576.752 643.868 577.34 636.821 578.607C617.242 582.046 605.64 585.574 582.246 585.956C558.948 586.267 554.124 593.41 521.052 592.013C488.025 590.565 485.152 597.771 452.466 600.814C436.957 602.249 419.454 602.695 403.274 602.919C402.509 602.93 401.745 602.94 400.983 602.95C400.965 602.951 400.913 602.954 400.896 602.955C383.878 603.018 368.476 602.77 358.569 603.331C338.865 604.455 312.47 606.127 284.515 606.39C256.572 606.707 222.263 610.194 191.5 610.871C179.287 611.148 165.183 611.628 151.247 612.371C149.795 612.448 148.359 612.526 146.942 612.605C127.075 613.738 108.429 614.776 97.0261 615.265C76.9126 616.115 72.0337 616.355 52.7375 618.896C41.7174 620.261 26.3102 621.658 13.1418 620.416C12.3695 620.306 11.5785 620.168 10.9969 619.943C10.8718 619.892 10.6405 619.802 10.515 619.711C10.4489 619.667 10.0526 619.391 10.0975 619.045C10.1194 618.745 10.3693 618.565 10.4259 618.543C10.5228 618.487 10.6228 618.444 10.7246 618.407C11.4121 618.22 11.7647 618.334 11.6564 618.603C11.6112 618.739 11.4611 618.925 11.3372 619.114C11.2522 619.219 11.1547 619.366 11.2182 619.372C11.2383 619.364 11.2918 619.322 11.3365 619.2C11.3833 619.085 11.3857 618.86 11.3073 618.7C11.1175 618.378 11.0989 618.444 11.1348 618.414C11.6738 618.416 13.1049 618.307 14.6604 618.162C24.1487 617.149 31.9794 616.789 36.8043 615.114C46.5027 611.673 50.4349 610.307 63.0604 610.59C75.6497 610.868 81.1731 606.906 88.41 606.583C95.7423 606.249 95.7556 608.26 132.451 603.063C137.288 602.384 141.489 601.788 145.812 601.196C147.267 600.995 148.705 600.8 150.126 600.611C176.18 597.197 191.991 595.788 203.579 594.609C217.595 593.177 246.954 593.07 269.754 591.073C292.55 588.991 339.009 587.15 357.615 584.967C376.27 582.749 376.418 585.43 391.576 586.148Z" fill="#3C3C3C"/>
<path d="M552.715 391.923C550.764 407.502 558.759 419.521 557.242 438.446C555.739 457.262 551.613 460.086 552.143 481.655C552.581 503.237 549.581 524.757 550.876 534.414C552.101 543.888 547.731 544.946 548.446 558.651C549.112 572.314 548.343 580.563 546.876 592.481C545.357 604.342 543.996 641.033 544.551 654.448C544.67 657.539 544.66 660.788 544.096 664.262C543.718 666.74 541.342 667.55 539.397 665.97C539.376 665.951 539.355 665.933 539.335 665.915C538.485 665.083 538.416 664.75 538.152 664.291C538.055 664.1 537.966 663.907 537.879 663.706C537.803 663.53 537.73 663.349 537.658 663.161C537.39 662.459 537.176 661.764 536.993 661.1C536.621 659.747 536.351 658.445 536.112 657.138C535.642 654.543 535.316 651.986 535.008 649.568C534.405 644.704 533.796 640.345 533.15 636.891C532.638 634.088 532.202 631.887 531.838 630.207C531.684 629.496 531.608 629.168 531.608 629.167C531.607 629.168 531.732 629.675 531.964 630.581C533.097 634.975 534.768 641.575 537.852 649.04C539.174 652.219 540.244 654.73 541.112 656.917C541.549 658.008 541.941 659.023 542.319 659.965C542.51 660.436 542.69 660.873 542.874 661.273C542.962 661.466 543.047 661.637 543.121 661.773C543.165 661.878 543.31 662.005 543.03 661.735C543.021 661.727 543.011 661.72 543.001 661.711L538.599 663.311C539.301 658.874 539.791 653.083 539.496 642.219C538.874 622.144 536.669 609.965 537.869 586.25C539.246 562.381 532.771 557.073 536.05 523.533C539.718 489.888 532.273 486.41 530.673 453.065C529.52 427.888 531.802 397.63 533.03 375.698C533.031 375.652 533.033 375.513 533.034 375.466C533.034 375.463 533.034 375.459 533.035 375.456C533.576 368.27 533.995 361.976 534.079 357.007C534.39 336.806 534.899 309.685 537.881 281.191C540.701 252.696 541.306 217.392 545.279 186.076C549.237 154.725 553.547 110.384 555.366 89.8861C555.924 83.9134 556.333 79.2438 556.642 75.1893C556.642 75.1889 556.642 75.1885 556.642 75.1882C557.393 65.1629 557.619 58.6225 557.612 44.5503C557.598 33.1956 558.35 17.5026 559.745 4.29452C560.421 -2.34131 561.339 -0.876212 561.724 5.87333C562.262 15.6816 561.639 23.7903 562.652 28.8408C564.66 39.0495 565.409 43.3265 563.679 56.0655C562.488 64.8033 563.404 70.3619 563.903 75.4559C563.903 75.4562 563.903 75.4566 563.903 75.457C564.134 77.772 564.275 79.9874 564.076 82.3491C563.445 89.7602 561.692 89.5906 561.471 127.467C561.292 165.361 561.038 186.121 560.948 200.444C560.92 214.798 557.833 244.536 557.879 267.879C557.99 291.224 555.919 338.513 556.945 357.615C557.455 367.043 556.906 371.789 555.944 376.048C555.943 376.051 555.942 376.054 555.942 376.058L555.945 375.812C555.049 380.278 553.71 384.208 552.715 391.923Z" fill="#3C3C3C"/>
<path d="M323.938 76.4405C336.892 76.0759 345.66 66.9358 361.129 64.7797C376.613 62.6471 379.679 66.5795 397.054 61.9184C414.367 57.0988 432.559 56.6844 439.957 52.9537C447.345 49.1457 449.415 55.4176 460.255 51.6705C465.853 49.7207 470.393 48.6365 474.888 48.071C474.981 48.0593 475.074 48.0479 475.168 48.0367C479.275 47.5385 483.348 47.4931 488.157 47.6137C498.382 47.8928 528.83 43.8163 540.088 42.3741C551.448 40.7378 564.409 45.0481 571.616 47.1142C573.895 47.818 575.655 48.4575 577.002 48.9438C577.572 49.1518 577.835 49.2479 577.836 49.2471C577.836 49.2471 577.836 49.2471 577.836 49.2471C577.836 49.2471 577.836 49.2471 577.836 49.2471C577.836 49.2471 577.836 49.2471 577.836 49.2471C577.836 49.2462 577.424 49.1072 576.677 48.8838C573.072 47.7961 567.466 46.5202 560.803 46.9356C548.509 48.4991 547.14 46.9043 530.926 50.7794C514.798 55.2373 506.049 61.8572 486.264 63.8591C483.434 64.1355 480.96 64.5687 478.679 65.1238C478.587 65.1462 478.496 65.1688 478.405 65.1916C465.075 68.5137 459.581 76.1543 435.153 75.546C406.537 75.0238 405.389 84.8672 377.764 89.4393C357.407 92.8188 332.643 93.8533 314.451 95.5989C314.385 95.6086 314.187 95.6344 314.121 95.6418C314.059 95.6455 313.998 95.6491 313.937 95.6528C307.414 96.0425 301.83 96.4584 297.556 97.029C280.812 99.2576 258.663 102.614 234.883 104.253C211.11 105.893 182.059 111.56 155.864 112.562C129.45 113.61 92.2347 115.126 75.1261 115.184C57.7999 115.265 53.6061 115.318 37.2621 117.446C27.732 118.574 14.6739 119.243 3.36153 116.672C0.478448 115.964 -0.299078 114.778 0.250322 114.461C0.620884 114.084 2.12793 114.011 4.85777 113.821C12.7438 113.205 19.6788 113.327 23.6345 111.471C31.8263 107.646 35.1658 106.12 45.883 107.246C56.5942 108.347 61.213 103.469 67.4093 103.429C73.6101 103.362 73.6752 106.074 104.93 100.968C135.871 95.8455 153.274 93.445 164.879 91.7298C176.648 89.9924 201.667 89.5724 220.922 86.6253C240.18 83.6894 279.434 80.0605 295.203 76.9282C303.596 75.252 307.683 75.3174 311.689 75.7638C311.751 75.7708 311.814 75.7778 311.876 75.7848L311.537 75.8289C314.823 76.1041 318.117 76.6193 323.938 76.4405Z" fill="#3C3C3C"/>
<path d="M536.137 444.983C538.599 402.692 521.171 370.186 520.74 318.807C520.467 291.696 522.453 276.592 523.571 259.843C523.707 257.703 523.829 255.564 523.932 253.401C524.557 240.037 524.401 224.413 521.622 200.715C517.593 164.509 514.614 129.019 513.941 98.3389C513.958 96.7434 513.821 96.0877 514.014 96.7364C514.162 97.3607 515.169 99.0464 515.854 99.5721C517.182 100.581 516.028 99.581 514.335 99.161C512.615 98.6431 510.42 98.2244 508.21 97.9399C503.827 97.3806 499.444 97.2908 495.75 97.5223C478.282 98.7859 471.667 94.5525 456.405 92.5939C453.611 92.2318 450.185 91.9772 446.608 91.8946C442.073 91.7974 436.895 91.9551 430.872 92.4994C393.8 95.9059 371.17 95.7384 338.413 94.126C305.644 92.41 205.253 95.9398 169.154 102.743C168.671 102.833 168.19 102.922 167.71 103.008C166.901 103.148 166.097 103.283 165.299 103.413C134.3 108.451 97.663 95.133 75.2337 106.637C75.2074 106.653 75.181 106.668 75.1547 106.684C72.5526 108.219 70.2237 109.886 68.1106 111.517C61.9644 116.327 57.5635 120.629 54.123 123.837C52.6739 125.206 52.0055 125.84 52.0048 125.84C52.006 125.84 53.041 124.856 54.9057 123.099C60.0071 118.41 66.3262 112.044 75.1547 106.684C75.181 106.668 75.2074 106.653 75.2337 106.637C82.2499 102.348 91.4556 101.386 100.882 98.9755C129.646 91.5904 140.173 88.1595 164.092 86.864C164.881 86.8198 165.693 86.7725 166.528 86.7217C175.568 86.1754 186.502 85.2643 200.822 83.5465C255.85 77.0205 288.744 69.2356 354.07 69.4657C393.793 69.7167 414.606 64.0612 446.014 61.2257C449.148 60.9447 452.677 60.6903 456.049 60.4883C465.282 59.964 475.514 59.7025 487.566 60.3487C493.594 60.69 500.11 61.242 507.357 62.421C514.961 64.0883 522.087 63.9118 535.07 72.2481C536.325 73.177 537.573 74.2258 538.854 75.5392C542.273 78.9036 544.963 84.2027 545.771 88.2603C546.662 92.3663 546.529 95.1894 546.493 97.2395C546.311 166.728 561.187 185.16 569.559 250.251C569.83 252.321 570.096 254.468 570.358 256.698C571.041 262.445 571.689 268.771 572.262 275.333C578.956 353.384 577.135 448.692 574.802 510.711C574.792 510.978 574.781 511.242 574.77 511.506C574.303 522.317 573.742 532.334 572.369 541.96C570.997 550.46 569.212 561.292 560.756 572.631C552.086 584.083 539.268 589.415 529.598 592.172C509.717 597.535 492.124 598.622 473.4 600.947C472.193 601.086 470.966 601.226 469.72 601.367C437.257 605.048 402.428 608.522 366.708 611.237C310.516 615.495 245.379 624.246 180.833 630.253C177.122 630.596 173.178 630.945 169.501 631.252C148.057 633.031 126.972 634.332 105.881 634.612C97.6898 634.677 89.2044 634.79 79.4817 634.181C74.0933 633.485 68.809 634.341 58.3162 628.932C55.1818 627.475 49.4116 621.549 48.1582 616.983C46.5922 612.439 46.6329 609.754 46.542 607.33C46.5203 602.629 46.9925 599.263 47.4395 595.778C48.3832 588.948 49.5485 582.594 50.7079 576.119C53.0458 563.242 55.4124 550.45 57.5459 537.679C58.1613 533.995 58.7514 530.489 59.3675 526.765C68.3147 472.853 76.5975 421.644 81.9965 390.628C91.6632 335.008 93.9348 321.429 99.2428 267.368C99.9762 259.921 100.921 251.68 102.037 243.102C102.166 242.109 102.297 241.123 102.43 240.144C106.51 214.039 109.783 185.483 119.588 158.815C119.831 158.555 120.239 158.219 120.715 158.041C120.996 157.932 121.311 157.863 121.637 157.856C123.2 157.913 123.741 158.767 124.157 159.24C124.554 159.765 124.802 160.251 125.02 160.712C125.444 161.633 125.714 162.46 125.941 163.219C126.388 164.739 126.631 165.97 126.786 166.947C127.083 168.896 126.984 169.809 126.572 169.781C126.157 169.755 125.43 168.769 124.412 166.983C123.902 166.099 123.318 164.999 122.619 163.83C122.271 163.253 121.882 162.642 121.49 162.181C121.304 161.958 121.086 161.769 121.049 161.79C121.038 161.798 121.09 161.889 121.355 161.987C121.609 162.094 122.116 162.084 122.381 161.972C122.637 161.882 122.826 161.718 122.869 161.685C122.977 161.585 122.787 161.951 122.687 162.336C122.563 162.752 122.451 163.213 122.336 163.733C118.52 189.577 115.662 211.885 116.653 225.871C117.165 231.958 117.646 237.134 117.923 242.167C117.989 243.179 118.045 244.187 118.091 245.193C118.834 261.85 117.764 274.868 111.974 300.266C104.17 334.487 109.901 351.841 106.471 371.93C103.024 392.054 98.533 391.082 89.0677 494.408C87.9035 507.029 86.7788 518.955 85.6891 530.192C85.3117 534.041 84.9674 537.587 84.6051 541.232C83.1291 556.222 81.933 570.112 81.03 582.657C80.5853 588.96 80.1963 595.004 80.1288 600.173C80.0934 602.687 80.2 605.172 80.4273 605.955C80.4828 606.28 80.7664 605.969 79.8921 603.834C79.1036 601.562 75.7846 598.684 75.3271 598.547C74.7325 598.152 74.3286 597.997 74.429 597.971C74.5087 597.942 74.9604 597.988 75.5597 598.017C76.7872 598.084 78.5779 598.104 80.4005 598.066C102.834 597.112 123.533 594.162 139.727 592.35C147.017 591.477 155.817 590.644 165.733 589.839C169.252 589.554 173.188 589.25 177.015 588.971C219.3 585.878 276.713 582.477 323.843 576.473C358.936 572.001 414.307 566.418 465.339 560.686C466.58 560.546 467.799 560.409 468.996 560.273C488.548 557.999 508.562 555.451 519.962 550.951C522.678 549.866 524.524 548.717 525.38 547.893C526.254 547.04 526.321 546.649 526.631 545.846C527.231 544.356 528.083 540.116 528.263 535.795C528.687 526.744 528.54 517.819 528.852 510.644C528.861 510.396 528.871 510.148 528.88 509.9C529.72 485.091 534.09 477.392 536.137 444.983Z" fill="#3C3C3C"/>
</svg>
