<svg width="75" height="43" viewBox="0 0 75 43" fill="none" xmlns="http://www.w3.org/2000/svg">
<path opacity="0.7" d="M9.74705 23.0572C13.0316 23.8246 16.4072 24.1395 19.7808 23.9931L30.7887 23.6963C33.4413 23.6123 36.2124 23.396 38.7464 23.3174C39.8311 23.2573 41.1216 23.1682 42.3643 23.1255C43.6498 23.0849 44.9361 23.1224 46.2163 23.2376C46.8846 23.2926 47.5606 23.3767 48.2443 23.4899C49.128 23.6325 49.9928 23.8732 50.8226 24.2076C51.6821 24.539 52.4609 25.0498 53.1075 25.7063L53.5752 26.1875C53.7278 26.352 53.8486 26.5435 53.9316 26.7523C54.1015 27.1493 54.2127 27.5692 54.2619 27.9989C54.3389 28.4084 54.3348 28.8294 54.2501 29.238C54.1265 29.6247 53.9638 29.9978 53.7647 30.3516C53.2686 31.0787 52.6522 31.7157 51.9423 32.2349C51.5745 32.5082 51.2054 32.8019 50.8355 33.0424L50.3125 33.3846L49.9302 33.6284L48.4205 34.5518L47.4247 35.149C47.1975 35.2818 46.9808 35.4321 46.7767 35.5984C46.5459 35.7487 46.3767 35.9772 46.3002 36.2419C46.3154 36.5096 46.4811 36.7445 46.7275 36.8477C46.9434 36.9632 47.1696 37.0584 47.4032 37.1322L47.764 37.2349L48.2952 37.3515L48.8343 37.4727L49.5562 37.6044C50.0526 37.6904 50.5175 37.7582 51.0513 37.8341C53.0701 38.1021 55.1385 38.2298 57.2035 38.3451C59.9144 38.4159 62.6189 38.6309 65.3056 38.9893C68.0843 39.3403 70.7772 40.1802 73.2606 41.4703C74.8357 42.3797 74.2243 42.7658 72.6912 42.8204L71.3638 42.846C70.8624 42.8416 70.3248 42.8269 69.7205 42.8369C68.5516 42.8062 67.1961 42.8261 65.7661 42.6657L63.7889 42.5801C63.1295 42.5583 62.4824 42.5332 61.8118 42.4945C60.4862 42.426 59.1548 42.3859 57.7827 42.3435C54.9737 42.2906 52.1704 42.0822 49.3858 41.7191L48.3025 41.5583C48.157 41.5376 47.8232 41.461 47.5897 41.4107L46.8416 41.3061L46.069 41.1346L45.6867 41.0511L45.2315 40.8939C44.6375 40.7346 44.0645 40.5065 43.5238 40.2141C43.0326 39.9762 42.585 39.6571 42.1997 39.2702C41.8764 38.9058 41.6117 38.4929 41.4152 38.0464C41.3225 37.803 41.2454 37.554 41.1842 37.3006C41.1532 37.0411 41.1463 36.779 41.1636 36.5179C41.1917 36.0225 41.3276 35.5388 41.5618 35.1007C42.1192 34.0996 42.9099 33.2481 43.866 32.6192C44.3497 32.2543 44.9644 31.8807 45.4103 31.5996L46.4467 31.0048L48.2223 30.0026C48.3961 29.9301 48.5659 29.8484 48.7312 29.7579C48.9737 29.6478 49.1567 29.4372 49.2321 29.1813C49.09 28.7456 48.7046 28.4361 48.2492 28.392L48.0439 28.3475C47.898 28.3211 47.7507 28.303 47.6026 28.2933C47.2991 28.2553 46.9863 28.2331 46.6612 28.2143C46.022 28.1938 45.3488 28.1958 44.6698 28.2261C43.315 28.2992 41.9183 28.3903 40.4647 28.5437L39.3526 28.6512L38.1898 28.7191L36.0204 28.8392L24.8606 29.2172L19.2931 29.4028C17.3988 29.4284 15.4742 29.4154 13.5349 29.246C11.0733 29.0844 8.64645 28.5891 6.32064 27.7734C5.08923 27.3334 3.91515 26.7478 2.82321 26.0287C2.15556 25.574 1.56269 25.018 1.06568 24.3805C0.558507 23.7074 0.216109 22.9239 0.0659126 22.0927C-0.0338272 21.4666 -0.0202715 20.827 0.105934 20.2046C0.22874 19.5928 0.430234 18.9993 0.705354 18.4389C1.17799 17.5208 1.77154 16.6701 2.46999 15.9099C3.74447 14.5511 5.15483 13.3272 6.67865 12.2578C9.57272 10.1615 12.6594 8.34757 15.8963 6.84106C18.3914 5.68408 20.9136 4.68007 23.4362 3.80291C24.7312 3.37856 25.979 2.92693 27.2558 2.53426C28.5326 2.14159 29.7865 1.78851 31.1191 1.4809C32.4518 1.17329 33.363 0.88634 34.5077 0.649703C38.762 -0.262399 40.1643 -0.181359 41.3217 0.687512C41.5949 0.857675 41.8505 1.05474 42.0846 1.2758C42.3849 1.62868 42.1367 2.07671 41.4443 2.58498C40.4054 3.28074 39.2742 3.82566 38.0842 4.20344L24.6305 8.86385C20.2598 10.3681 16.098 12.4297 12.2476 14.9978C10.8556 15.9354 9.52569 16.963 8.26648 18.0739C7.70759 18.5644 7.1863 19.0965 6.70705 19.6654C6.35875 20.062 6.05537 20.496 5.8025 20.9594C5.77506 21.0069 5.8025 20.9594 5.76135 21.0306C5.76135 21.0306 5.7202 21.1019 5.76135 21.0306L5.8086 21.0579C5.8086 21.0579 5.8086 21.0579 5.85585 21.0852L6.00549 21.1716C6.52835 21.539 7.09262 21.8435 7.68676 22.0789C8.37802 22.3686 9.08992 22.6067 9.81664 22.7912L9.74705 23.0572Z" fill="#0D0D0D"/>
</svg>
