<svg width="33" height="33" viewBox="0 0 33 33" fill="none" xmlns="http://www.w3.org/2000/svg">
<g clip-path="url(#clip0_42_116)">
<path d="M31.3192 13.2457C30.9585 13.2525 30.6023 13.2504 30.3163 13.2487L30.1263 13.2478L28.3208 9.84621C28.4277 9.7204 28.5396 9.59175 28.654 9.46002C28.9891 9.07453 29.3354 8.67576 29.656 8.24554C30.0598 7.7042 30.0264 7.07745 29.569 6.6102L29.5399 6.5804C28.3967 5.4118 27.2143 4.20345 25.9981 3.07081C25.6526 2.74902 25.3477 2.60605 25.0428 2.61925C24.7206 2.63366 24.4015 2.8284 24.0393 3.23167C23.7772 3.52329 23.5239 3.81503 23.2556 4.12402C23.168 4.22523 23.0791 4.32739 22.9893 4.43057C22.1891 3.61473 21.1865 3.12753 19.7722 2.86541C19.7722 2.78298 19.7738 2.70137 19.7748 2.62055C19.7782 2.35979 19.7814 2.11359 19.769 1.86198C19.6968 0.411195 19.2893 0.013832 17.8727 0.0134277H17.8612C16.9744 0.0134277 16.074 0.0449377 15.2035 0.0755133C14.7893 0.0899255 14.3763 0.104581 13.9627 0.115895C13.3267 0.133405 12.9366 0.486172 12.8642 1.10913C12.8169 1.51671 12.7859 1.92381 12.7585 2.28304C12.7498 2.39793 12.7415 2.50765 12.7332 2.61029L9.53507 4.43248C9.46947 4.35167 9.40253 4.26828 9.33466 4.18329C9.11382 3.90811 8.88547 3.62335 8.63831 3.34723C8.28493 2.9523 7.94357 2.75272 7.59447 2.73736C7.25431 2.72456 6.9115 2.88107 6.5469 3.22319C5.50666 4.19931 4.51412 5.17475 3.59707 6.12246C2.84635 6.89789 2.81053 7.55024 3.46947 8.4508C3.70434 8.77138 3.9658 9.07444 4.17583 9.31796C4.23702 9.38895 4.29433 9.45516 4.34617 9.51645L2.91982 13.3822C2.77192 13.3957 2.62175 13.4079 2.47011 13.4203C2.05394 13.4545 1.62362 13.4899 1.19569 13.5478C0.415845 13.6531 0.11216 13.9981 0.112427 14.7777C0.112427 16.2822 0.128189 17.5346 0.159854 18.719C0.171611 19.1595 0.294256 19.4855 0.524588 19.6875C0.762402 19.8963 1.10029 19.9728 1.55909 19.9207C1.81707 19.8917 2.07426 19.8579 2.33158 19.824L2.39905 19.815C2.40067 19.8298 2.40459 19.8442 2.41067 19.8578L4.02367 23.3993C3.81605 23.5599 3.60807 23.7197 3.39974 23.8791C3.17225 24.0536 2.94513 24.2285 2.71836 24.4036C2.05449 24.9181 1.93102 25.5047 2.35121 26.1473C3.0398 27.1998 3.84945 28.4157 4.74686 29.5257C5.54126 30.509 6.18562 30.5792 7.30014 29.8062C7.76401 29.4842 8.22562 29.1596 8.69069 28.8319L9.23553 28.4487C10.4489 29.4197 11.659 29.863 13.0022 29.8432C12.9899 29.9578 12.9779 30.0668 12.9663 30.1717C12.9315 30.485 12.9015 30.7557 12.8826 31.0321C12.8337 31.7552 12.9303 32.204 13.1957 32.4887C13.4543 32.7658 13.8763 32.8902 14.5603 32.8902H14.6044C15.5316 32.8832 16.474 32.8668 17.3854 32.851C17.7616 32.8443 18.1377 32.838 18.5139 32.8319C19.0386 32.8236 19.409 32.6909 19.6477 32.4261C19.8863 32.1613 19.9817 31.7761 19.9381 31.249C19.9087 30.8867 19.876 30.5246 19.8465 30.1992L19.8197 29.9047L22.6209 28.7155L22.6788 28.7953C22.7828 28.9381 22.8886 29.0833 22.9931 29.2294C23.0453 29.3024 23.0962 29.3765 23.1471 29.4506C23.2385 29.5835 23.3331 29.7212 23.435 29.8519C23.9369 30.4959 24.4896 30.6325 25.2275 30.2956C25.4705 30.193 25.6992 30.0583 25.9074 29.8953C26.1463 29.6952 26.3854 29.4953 26.6251 29.2957C27.602 28.4806 28.6122 27.6379 29.5721 26.7691C30.009 26.3736 30.2097 26.0425 30.2232 25.6954C30.2365 25.3416 30.0495 24.9791 29.6166 24.5205C29.3005 24.1859 28.9816 23.8542 28.6887 23.5496L28.3948 23.2433L30.2443 19.6862C30.3195 19.6789 30.4015 19.6712 30.4888 19.6632C30.7807 19.6362 31.1434 19.6021 31.5016 19.5595C32.2654 19.4685 32.5373 19.2171 32.7139 18.4388C33.0734 16.8547 32.7941 15.3086 32.511 14.1388C32.3668 13.5427 31.954 13.2386 31.3192 13.2457ZM28.1472 18.7498C27.7574 20.3365 27.2068 21.4423 26.3618 22.3354C26.0192 22.6974 26.0316 23.2047 26.396 23.727C26.7268 24.2013 27.0717 24.6614 27.437 25.1487C27.5667 25.3219 27.6989 25.4981 27.8333 25.6791L24.6761 28.2085C24.5882 28.1029 24.5019 27.9987 24.4174 27.8958C24.1692 27.5952 23.9349 27.3112 23.6874 27.0321C23.0289 26.2896 22.6834 26.32 21.8378 26.8096C21.167 27.1833 20.4605 27.4875 19.729 27.718C18.0503 28.2824 17.924 29.0364 17.9156 30.2114C17.9146 30.3604 17.9045 30.5142 17.8938 30.6771C17.891 30.7183 17.8884 30.7603 17.8857 30.8034H14.7727L14.7558 30.4264C14.7401 30.0751 14.725 29.7376 14.7081 29.4003C14.6601 28.4545 14.4618 28.1121 13.4437 28.0751C11.9184 28.0197 10.6354 27.5697 9.52116 26.6992C9.09724 26.3676 8.60664 26.3953 8.02119 26.7834C7.58471 27.0728 7.15518 27.3717 6.70026 27.6884C6.53344 27.8046 6.36251 27.9234 6.18749 28.0446L4.19762 25.354C4.32071 25.25 4.44219 25.1466 4.56207 25.0436C4.90704 24.7487 5.23264 24.47 5.57547 24.2046C6.14114 23.767 6.18804 23.51 5.81502 22.8945C5.13845 21.7779 4.43971 20.4253 4.3864 18.859C4.36796 18.3104 4.04865 18.0223 3.43781 18.0025C3.07856 17.9908 2.71636 17.9934 2.33145 17.9958C2.19504 17.9967 2.05487 17.9978 1.90951 17.9982L1.77392 15.3625C1.97085 15.3416 2.16137 15.3198 2.34694 15.2987C2.84128 15.2421 3.30889 15.1889 3.77249 15.1672C4.34498 15.1403 4.67991 14.8334 4.76809 14.2539C5.02514 12.5658 5.49931 11.2576 6.26018 10.1364C6.38454 9.97717 6.45289 9.78082 6.45454 9.57814C6.45618 9.37545 6.39102 9.17791 6.26927 9.01661C5.98888 8.60705 5.70733 8.19878 5.42463 7.79173L5.16504 7.41633L7.71379 4.80098C7.81426 4.89975 7.91477 4.99856 8.01533 5.09733C8.30926 5.38652 8.61252 5.68527 8.91647 5.97554C9.51287 6.54448 9.6827 6.46662 10.3052 6.0461C11.0921 5.5142 11.934 4.96219 12.8149 4.57158C13.5724 4.23579 14.25 3.84562 14.2178 2.77413C14.2215 2.54781 14.2518 2.32273 14.3082 2.10361C14.3264 2.01835 14.3447 1.9308 14.3616 1.84029H17.912C17.9128 1.91396 17.9143 1.98841 17.9156 2.06343C17.9207 2.33107 17.9259 2.60764 17.9067 2.87837C17.8313 3.93262 18.1812 4.38034 19.1547 4.47503C20.1834 4.57524 21.0831 5.03618 22.07 5.97015C22.5951 6.46663 22.885 6.56005 23.4664 6.09563C23.8539 5.78583 24.213 5.45896 24.5928 5.11239C24.7231 4.99368 24.8546 4.87451 24.9872 4.75481L27.5329 7.45703C27.4729 7.52047 27.4087 7.58765 27.3412 7.65823C27.0796 7.93246 26.7829 8.24338 26.4893 8.56866C25.7038 9.43973 25.6988 9.76741 26.4575 10.6295C27.2614 11.5193 27.8278 12.6005 28.1034 13.7717C28.2572 14.4489 28.643 14.7782 29.3177 14.8087C29.6416 14.8231 29.9653 14.8409 30.3303 14.8604L30.753 14.883L30.9032 17.7125H30.5084C30.1565 17.7117 29.8389 17.7115 29.5212 17.714C28.6931 17.721 28.3335 17.9922 28.1472 18.7498Z" fill="#FBFBFB"/>
<path d="M17.5866 7.94248C16.2759 7.82028 14.9551 8.00818 13.7293 8.49125C12.5034 8.97431 11.4063 9.73919 10.5253 10.725C9.64432 11.7108 9.00372 12.8904 8.65453 14.1698C8.30535 15.4492 8.2572 16.7931 8.51393 18.0945C9.18542 21.3017 10.8348 23.3304 13.5565 24.2967C14.3589 24.5759 15.2028 24.7137 16.0518 24.7044C16.7581 24.6986 17.4626 24.6297 18.1571 24.4985C22.6461 23.689 25.1178 20.5124 25.1158 15.5535V15.5504C25.0613 13.9991 24.5484 12.4994 23.6427 11.2441C22.2163 9.32116 20.1789 8.21025 17.5866 7.94248ZM22.9855 17.6372C22.4522 20.3258 20.77 21.8878 17.843 22.4125C16.8955 22.5822 15.6526 22.7296 14.4424 22.3612C12.3349 21.7192 11.0698 20.2252 10.5749 17.7941C10.4975 17.3659 10.4468 16.9333 10.4231 16.4987C10.4079 16.2967 10.3928 16.0957 10.3724 15.8953C10.3686 15.0874 10.5267 14.2871 10.8372 13.5422C11.1477 12.7975 11.6042 12.1235 12.1793 11.5609C13.4044 10.3711 15.1254 9.75338 17.0136 9.81346C19.0521 9.8808 20.6671 10.6199 21.8135 12.009C23.055 13.5135 23.4384 15.3548 22.9855 17.6372Z" fill="#FBFBFB"/>
</g>
<defs>
<clipPath id="clip0_42_116">
<rect width="33" height="33" fill="white"/>
</clipPath>
</defs>
</svg>
