<svg width="34" height="33" viewBox="0 0 34 33" fill="none" xmlns="http://www.w3.org/2000/svg">
<path d="M0.624094 22.4067C0.228275 22.678 0.031338 22.9333 0.00334791 23.2104C-0.0229458 23.4719 0.105424 23.7463 0.396068 24.0489C0.88295 24.576 1.43506 25.037 2.0387 25.4206C4.3616 26.8313 6.70274 28.2101 8.99751 29.519C10.3436 30.2867 11.7291 31.0351 13.0688 31.759C13.647 32.0711 14.2247 32.3841 14.802 32.698C15.0935 32.8776 15.4243 32.9812 15.7651 33C15.9836 32.9997 16.1982 32.9407 16.387 32.8293C17.4048 32.2435 18.5091 31.5949 19.7633 30.8461L21.4417 29.8438C25.2303 27.5817 29.1479 25.2436 32.9937 22.9304C33.5539 22.5936 33.875 22.0959 33.8745 21.5651C33.8745 21.0242 33.543 20.5159 32.9663 20.1705C32.4705 19.8734 31.9615 19.5834 31.4226 19.2772C31.2298 19.1674 31.0314 19.0544 30.8257 18.9368C31.063 18.7612 31.2942 18.5905 31.5197 18.4247C32.1256 17.9779 32.6978 17.5559 33.2648 17.1284C33.7664 16.7504 34.0268 16.2711 33.9978 15.7787C33.9683 15.273 33.6393 14.813 33.072 14.4831C32.573 14.1928 32.0757 13.8999 31.5596 13.5953L31.0222 13.2791C31.2088 13.1359 31.3933 12.995 31.5757 12.8563C32.117 12.4438 32.6286 12.0545 33.1349 11.6423C33.5556 11.3001 33.7667 10.8803 33.7292 10.4601C33.6905 10.0257 33.3935 9.63526 32.8926 9.36065C32.2171 8.99025 31.6098 8.65277 31.0193 8.27364L30.7626 8.10858C26.5307 5.38967 22.1548 2.57827 17.5361 0.348454C16.4653 -0.168696 15.5307 -0.111432 14.5957 0.528421C13.4117 1.33865 12.2338 2.12195 11.0307 2.91944C9.76469 3.75941 8.49817 4.59815 7.23118 5.43563C5.17504 6.7958 3.04876 8.20307 0.961525 9.59302C0.399744 9.96743 0.122512 10.3248 0.0890085 10.7182C0.0564947 11.1014 0.268272 11.5041 0.736329 11.9496C1.27894 12.4462 1.84829 12.9121 2.44175 13.345C2.67146 13.5192 2.90105 13.6934 3.12738 13.8711C3.27765 13.9891 3.43568 14.0973 3.60319 14.212L3.688 14.2705C3.4081 14.4841 3.13272 14.693 2.86187 14.8973C2.13031 15.4507 1.43919 15.9735 0.761075 16.5256C0.285243 16.9122 0.0647029 17.2577 0.0665406 17.6112C0.0685197 17.9673 0.296398 18.3135 0.78368 18.7013C1.16536 19.005 1.57701 19.2782 1.97509 19.5425C2.21541 19.7018 2.46336 19.8666 2.70099 20.0356C2.8613 20.1547 3.01509 20.2826 3.16171 20.4186C3.19536 20.4488 3.22943 20.4794 3.26449 20.5103C3.0171 20.689 2.7744 20.8654 2.53645 21.0392C1.88052 21.5183 1.26066 21.97 0.624094 22.4067ZM6.47655 22.232C7.70641 22.925 8.97869 23.6416 10.2346 24.3287C10.8848 24.6841 11.5511 25.0314 12.1961 25.3674C13.0302 25.8018 13.8925 26.2508 14.7235 26.7205C15.5634 27.1948 16.4111 27.2253 17.4729 26.8192C20.2899 25.7424 22.8306 24.2197 24.9432 22.8725C25.9552 22.227 26.9363 21.5753 27.976 20.8856C28.4156 20.5938 28.8599 20.2996 29.3089 20.0028L31.7364 21.5139C31.1184 21.8993 30.5053 22.2824 29.8971 22.6633C28.3721 23.6173 26.932 24.5184 25.4526 25.425C24.1607 26.2169 22.8436 27.0161 21.5698 27.789C19.8876 28.8098 18.1472 29.865 16.4438 30.9175C16.1205 31.1167 15.9058 31.0666 15.5984 30.8957C14.5193 30.2944 13.4395 29.6941 12.3594 29.0949C10.2124 27.9022 7.99239 26.6692 5.81426 25.4468C4.95603 24.9651 4.11268 24.4643 3.21983 23.934C2.86359 23.7225 2.50084 23.507 2.12806 23.2875L4.9036 21.3474C5.42958 21.6423 5.95371 21.9372 6.476 22.232H6.47655ZM29.529 11.9994C28.0407 13.06 26.635 14.062 25.1643 15.0095C23.4587 16.1086 21.6912 17.1745 19.9818 18.2054C18.997 18.7993 17.9786 19.4135 16.9825 20.0274C16.5888 20.2708 16.303 20.2651 15.8919 20.0075C13.7998 18.6975 11.6673 17.3759 9.60465 16.0988C7.87803 15.0292 6.09276 13.9225 4.34083 12.8292C3.77538 12.4763 3.23819 12.0939 2.66977 11.6887C2.46243 11.5412 2.2527 11.3927 2.04057 11.2431C2.52422 10.9091 2.99982 10.5792 3.46736 10.2536C4.6322 9.44412 5.73258 8.6787 6.8601 7.92474C8.17817 7.04263 9.52508 6.15582 10.8277 5.29834C12.0958 4.46348 13.4068 3.60026 14.6903 2.74206L14.7313 2.71457C16.4889 1.5391 16.489 1.53953 18.3714 2.55049C22.1201 4.5634 25.9495 6.92937 30.7884 10.2221C30.9241 10.3145 31.0559 10.4209 31.2227 10.5557C31.2729 10.5963 31.3263 10.6394 31.3839 10.6855C30.7537 11.1263 30.1317 11.5694 29.5286 11.9994H29.529ZM5.28259 15.222C5.64825 15.4666 6.01455 15.7134 6.38144 15.9624C7.25309 16.5517 8.15428 17.1613 9.0617 17.7357C10.4772 18.6323 11.9257 19.5274 13.3269 20.3931C14.128 20.8882 14.9291 21.3843 15.73 21.8814C16.4482 22.329 17.0966 22.0508 17.522 21.8028C18.0765 21.4794 18.6317 21.1568 19.1875 20.8352C20.9297 19.8253 22.7312 18.7808 24.4767 17.7077C25.9886 16.7782 27.4245 15.776 29.0109 14.6565C29.4227 14.3658 29.6881 14.3611 30.0624 14.6358C30.4801 14.9427 30.9188 15.2239 31.3827 15.5215C31.534 15.6183 31.6891 15.7183 31.8478 15.8209C31.5248 16.0533 31.211 16.2835 30.9022 16.51C30.1219 17.0827 29.3847 17.6234 28.612 18.1164C25.179 20.3095 22.156 22.1991 19.3702 23.8936C18.818 24.209 18.2429 24.4813 17.6499 24.7084C17.3304 24.8403 16.9998 24.9766 16.6818 25.125C16.4641 25.2337 16.2228 25.2847 15.9805 25.2729C15.7381 25.2611 15.5027 25.187 15.2965 25.0578C13.2845 23.959 11.2707 22.8637 9.25507 21.772C7.26862 20.6933 5.28312 19.6136 3.29855 18.5328C2.93596 18.3348 2.58368 18.0978 2.21005 17.8471C2.08056 17.7601 1.94752 17.6707 1.80899 17.5794L5.28259 15.222Z" fill="#FBFBFB"/>
</svg>
