<svg width="30" height="17" viewBox="0 0 30 17" fill="none" xmlns="http://www.w3.org/2000/svg">
<path d="M1.82008 0.010454C2.37644 -0.0359927 2.79315 0.0720869 3.09382 0.339571C3.48532 0.687867 3.67459 1.2971 3.68822 2.25463C4.01205 2.61224 4.33485 2.96795 4.65652 3.32179C5.39933 4.13976 6.16746 4.98547 6.9131 5.81985C7.65875 6.65422 8.41098 7.50932 9.13845 8.33616C9.4507 8.69089 9.76329 9.04593 10.0763 9.40132C10.1608 9.39955 10.2489 9.39356 10.3413 9.38735C10.6146 9.35248 10.892 9.36615 11.1602 9.4277C11.517 9.53257 11.7291 9.43459 12.0428 9.19049C13.7695 7.84842 15.3743 6.80563 16.949 6.00284C17.0727 5.9478 17.1816 5.86563 17.2673 5.76271C17.3529 5.6598 17.4131 5.53893 17.443 5.40956C17.5679 4.94422 17.8749 4.54534 18.2981 4.29883C18.7211 4.05232 19.2265 3.97788 19.7053 4.09155C20.1921 4.20252 20.6181 4.48875 20.8982 4.89303C21.1783 5.29731 21.2918 5.78991 21.2161 6.27234C21.1965 6.39982 21.1729 6.5273 21.1502 6.64868L21.132 6.74844L27.4556 12.6851C27.4877 12.6821 27.5197 12.6787 27.5516 12.6755C27.657 12.6644 27.7661 12.6533 27.8754 12.6505C28.9213 12.6211 29.5642 13.0678 29.8999 14.0566C30.1518 14.7982 29.8761 15.4601 29.6467 15.8935C29.4913 16.2049 29.2547 16.4709 28.9605 16.6646C28.6664 16.8583 28.3251 16.9731 27.9712 16.9971C27.9355 16.999 27.9 16.9999 27.8644 17C27.5237 16.995 27.1896 16.9072 26.8922 16.7447C26.5949 16.5821 26.3437 16.3499 26.1613 16.0688C25.6163 15.2692 25.5316 14.5197 25.904 13.7804L19.7679 8.07422L18.0586 7.55877L12.9877 10.9549C12.9477 11.6853 12.7614 12.2331 12.3871 12.7241C12.1691 13.0258 11.8527 13.2463 11.4897 13.3499C11.1267 13.4533 10.7386 13.4335 10.3886 13.2937C9.37678 12.9183 8.81474 12.0866 8.84142 11.0078L2.68722 3.54593C1.81429 3.71221 1.13677 3.63462 0.672487 3.31426C0.313576 3.06695 0.0951157 2.68352 0.0234699 2.1746C-0.0177479 1.91798 -0.00457573 1.6558 0.0621891 1.40435C0.128952 1.1529 0.247948 0.917524 0.411678 0.712801C0.584719 0.507895 0.798977 0.339841 1.04128 0.219032C1.28347 0.0982212 1.54859 0.027232 1.82008 0.010454Z" fill="#FBFBFB"/>
</svg>
